<?xml version="1.0" encoding="utf-8"?>
<!-- Generator: Adobe Illustrator 16.0.0, SVG Export Plug-In . SVG Version: 6.00 Build 0)  -->
<!DOCTYPE svg PUBLIC "-//W3C//DTD SVG 1.1//EN" "http://www.w3.org/Graphics/SVG/1.1/DTD/svg11.dtd">
<svg version="1.1" id="Layer_1" xmlns="http://www.w3.org/2000/svg" xmlns:xlink="http://www.w3.org/1999/xlink" x="0px" y="0px"
	 width="64px" height="64px" viewBox="0 0 64 64" enable-background="new 0 0 64 64" xml:space="preserve">
<g>
	<path fill="#555655" d="M43.577,45.821H16.969c-3.861,0-7.003-3.142-7.003-7.002c0-3.841,3.108-6.969,6.941-7.001
		c0.513-6.705,6.132-12.004,12.965-12.004c4.61,0,8.812,2.408,11.157,6.338c0.837-0.224,1.69-0.336,2.548-0.336
		c5.516,0,10.003,4.487,10.003,10.003S49.093,45.821,43.577,45.821z M16.969,33.817c-2.759,0-5.003,2.243-5.003,5.002
		s2.244,5.002,5.003,5.002h26.608c4.413,0,8.003-3.591,8.003-8.003c0-4.413-3.59-8.003-8.003-8.003c-0.907,0-1.812,0.16-2.689,0.475
		l-0.826,0.296l-0.401-0.781c-1.897-3.696-5.647-5.992-9.788-5.992c-6.067,0-11.003,4.937-11.003,11.004v1.159l-1.143-0.095
		C17.478,33.845,17.227,33.817,16.969,33.817z"/>
</g>
</svg>
