<?xml version="1.0" encoding="utf-8"?>
<!-- Generator: Adobe Illustrator 16.0.0, SVG Export Plug-In . SVG Version: 6.00 Build 0)  -->
<!DOCTYPE svg PUBLIC "-//W3C//DTD SVG 1.1//EN" "http://www.w3.org/Graphics/SVG/1.1/DTD/svg11.dtd">
<svg version="1.1" id="Layer_1" xmlns="http://www.w3.org/2000/svg" xmlns:xlink="http://www.w3.org/1999/xlink" x="0px" y="0px"
	 width="64px" height="64px" viewBox="0 0 64 64" enable-background="new 0 0 64 64" xml:space="preserve">
<path fill="#555655" d="M6.281,43.01c0.765,0.444,1.595,0.807,2.476,1.084c2.233,7.164,8.853,12.084,16.432,12.084
	c3.009,0,5.989-0.802,8.617-2.321c0.791-0.459,1.554-0.989,2.278-1.584c1.486,0.598,3.047,0.899,4.653,0.899
	c2.196,0,4.369-0.586,6.284-1.695c2.807-1.626,4.846-4.242,5.751-7.316c1.87-0.089,3.705-0.624,5.338-1.57
	C61.743,40.486,64,36.581,64,32.396c0-2.307-0.656-4.502-1.908-6.413c0.51-1.158,0.775-2.414,0.775-3.688
	c0-3.254-1.756-6.294-4.585-7.936c-2.254-1.304-5.029-1.579-7.477-0.766c-3.014-4.132-7.875-6.645-13.015-6.645
	c-2.819,0-5.605,0.751-8.056,2.172c-1.654,0.958-3.107,2.187-4.329,3.66c-1.347,0.078-2.665,0.399-3.933,0.944
	c-1.72,0.381-3.37,1.019-4.902,1.908c-1.786,1.033-3.352,2.362-4.666,3.957c-1.97,0.105-3.902,0.68-5.625,1.678
	C2.407,23.514,0,27.68,0,32.142C0,36.603,2.407,40.767,6.281,43.01z M31.422,12.033c1.939-1.125,4.141-1.719,6.369-1.719
	c4.521,0,8.61,2.331,10.94,6.236c0.46,0.772,1.446,1.045,2.237,0.622c0.848-0.454,1.766-0.683,2.728-0.683
	c1.012,0,2.015,0.271,2.898,0.782c1.794,1.04,2.907,2.965,2.907,5.023c0,1.047-0.284,2.075-0.821,2.973
	c-0.359,0.602-0.31,1.363,0.127,1.912c1.195,1.503,1.827,3.307,1.827,5.216c0,2.988-1.613,5.778-4.212,7.281
	c-0.965,0.56-2.026,0.922-3.119,1.066c0-0.046,0.001-0.094,0.001-0.14c0-2.483-0.714-4.847-2.075-6.898
	c0.562-1.25,0.854-2.609,0.854-3.987c0-3.46-1.868-6.694-4.877-8.44c-2.428-1.401-5.418-1.683-8.038-0.786
	c-0.182-0.255-0.373-0.502-0.567-0.746c-0.059-0.074-0.118-0.145-0.178-0.217c-0.145-0.174-0.292-0.346-0.443-0.515
	c-0.063-0.071-0.127-0.144-0.191-0.213c-0.183-0.198-0.37-0.391-0.561-0.58c-0.029-0.028-0.057-0.058-0.085-0.085
	c-0.22-0.213-0.445-0.42-0.676-0.621c-0.064-0.056-0.13-0.11-0.195-0.166c-0.173-0.146-0.347-0.289-0.524-0.427
	c-0.076-0.06-0.153-0.119-0.23-0.177c-0.194-0.148-0.393-0.29-0.593-0.428c-0.052-0.035-0.102-0.072-0.153-0.107
	c-0.251-0.168-0.506-0.33-0.767-0.485c-0.065-0.04-0.134-0.077-0.202-0.116c-0.198-0.115-0.397-0.226-0.601-0.333
	c-0.088-0.045-0.174-0.09-0.262-0.134c-0.205-0.103-0.413-0.203-0.623-0.298c-0.07-0.032-0.139-0.064-0.21-0.096
	c-0.276-0.121-0.556-0.234-0.839-0.341c-0.063-0.024-0.127-0.045-0.19-0.068c-0.224-0.081-0.451-0.159-0.68-0.23
	c-0.095-0.031-0.19-0.059-0.285-0.086c-0.215-0.063-0.432-0.123-0.649-0.179c-0.085-0.021-0.169-0.044-0.254-0.064
	c-0.036-0.008-0.069-0.019-0.105-0.026C29.808,13.094,30.583,12.519,31.422,12.033z M7.968,24.18
	c1.392-0.807,2.967-1.236,4.56-1.242c0.059,0.004,0.117,0.007,0.177,0.009c0.528,0.021,1.049-0.243,1.372-0.675
	c1.142-1.527,2.548-2.781,4.182-3.727c1.274-0.739,2.647-1.268,4.081-1.571c0.94-0.199,1.899-0.301,2.849-0.301
	c4.919,0,9.367,2.537,11.903,6.785c0.46,0.771,1.443,1.044,2.236,0.624c0.934-0.499,1.943-0.75,3.003-0.75
	c1.112,0,2.216,0.298,3.188,0.86c1.975,1.145,3.199,3.262,3.199,5.527c0,1.151-0.312,2.283-0.904,3.271
	c-0.359,0.601-0.31,1.363,0.127,1.91c1.307,1.646,1.998,3.618,1.998,5.705c0,0.117-0.003,0.235-0.009,0.357
	c-0.019,0.363-0.065,0.755-0.143,1.205c0,0,0,0.001,0,0.002c-0.466,2.695-2.088,5.027-4.453,6.396
	c-1.403,0.813-2.993,1.242-4.598,1.242c-1.456,0-2.863-0.34-4.183-1.013c-0.631-0.322-1.396-0.214-1.912,0.27
	c-0.784,0.731-1.633,1.364-2.522,1.881c-2.115,1.223-4.513,1.868-6.932,1.868c-6.367,0-11.892-4.316-13.437-10.498
	c-0.153-0.611-0.635-1.086-1.249-1.229c-0.926-0.216-1.779-0.548-2.535-0.987c-2.839-1.644-4.602-4.691-4.602-7.956
	C3.365,28.876,5.128,25.825,7.968,24.18z"/>
</svg>
