<?xml version="1.0" encoding="utf-8"?>
<!-- Generator: Adobe Illustrator 16.0.0, SVG Export Plug-In . SVG Version: 6.00 Build 0)  -->
<!DOCTYPE svg PUBLIC "-//W3C//DTD SVG 1.1//EN" "http://www.w3.org/Graphics/SVG/1.1/DTD/svg11.dtd">
<svg version="1.1" id="Layer_1" xmlns="http://www.w3.org/2000/svg" xmlns:xlink="http://www.w3.org/1999/xlink" x="0px" y="0px"
	 width="64px" height="64px" viewBox="0 0 64 64" enable-background="new 0 0 64 64" xml:space="preserve">
<path fill="#555655" d="M5.571,45.587c0.682,0.396,1.418,0.719,2.196,0.964c1.982,6.353,7.853,10.716,14.573,10.716
	c2.673,0,5.316-0.713,7.645-2.061c0.703-0.408,1.378-0.879,2.018-1.403c1.315,0.529,2.7,0.798,4.128,0.798
	c1.947,0,3.875-0.519,5.576-1.503c3.373-1.957,5.488-5.555,5.564-9.428c8.211-0.705,15.104-6.795,16.701-14.998
	c0.094-0.483-0.057-0.982-0.402-1.333c-0.344-0.351-0.844-0.507-1.326-0.422c-0.971,0.174-1.877,0.259-2.77,0.259
	c-8.635,0-15.66-7.024-15.66-15.658c0-0.986,0.1-1.997,0.295-3.008c0.094-0.483-0.055-0.981-0.4-1.332
	c-0.346-0.35-0.84-0.508-1.326-0.421c-7.139,1.275-12.827,6.586-14.685,13.478c-1.719-0.657-3.514-0.99-5.357-0.99
	c-2.674,0-5.317,0.713-7.643,2.061c-1.583,0.918-2.972,2.095-4.138,3.508c-1.75,0.093-3.464,0.604-4.987,1.491
	C2.135,28.295,0,31.99,0,35.948C0,39.903,2.135,43.597,5.571,45.587z M40.879,10.2c-0.033,0.442-0.049,0.882-0.049,1.318
	c0,10.28,8.363,18.643,18.645,18.643c0.342,0,0.684-0.011,1.029-0.031c-1.994,5.88-7.35,10.084-13.598,10.576
	c-0.01-0.034-0.021-0.068-0.031-0.104c-0.059-0.227-0.127-0.451-0.199-0.672c-0.021-0.065-0.043-0.132-0.064-0.196
	c-0.092-0.259-0.189-0.515-0.297-0.765c-0.012-0.024-0.023-0.048-0.035-0.072c-0.1-0.229-0.211-0.452-0.326-0.672
	c-0.033-0.062-0.064-0.123-0.1-0.184c-0.131-0.239-0.27-0.476-0.418-0.704c0.498-1.11,0.76-2.315,0.76-3.538
	c0-3.07-1.656-5.939-4.328-7.489c-2.15-1.241-4.799-1.493-7.129-0.693c-0.16-0.221-0.326-0.437-0.498-0.648
	c-0.053-0.066-0.109-0.129-0.164-0.194c-0.121-0.145-0.244-0.289-0.369-0.429c-0.066-0.073-0.135-0.145-0.201-0.216
	c-0.121-0.13-0.246-0.258-0.371-0.383c-0.07-0.071-0.143-0.141-0.214-0.21c-0.134-0.127-0.269-0.251-0.406-0.374
	c-0.068-0.06-0.135-0.122-0.203-0.181c-0.17-0.146-0.344-0.288-0.52-0.427c-0.04-0.03-0.078-0.063-0.117-0.093
	c-0.218-0.168-0.441-0.33-0.668-0.488c-0.057-0.039-0.116-0.076-0.174-0.114c-0.136-0.09-0.271-0.183-0.41-0.27
	C31.655,16.202,35.66,11.876,40.879,10.2z M7.07,28.886c1.229-0.715,2.624-1.096,4.036-1.103c0.054,0.005,0.107,0.008,0.161,0.009
	c0.481,0.017,0.931-0.215,1.218-0.599c1.013-1.354,2.26-2.465,3.709-3.305c1.871-1.084,3.997-1.658,6.146-1.658
	c1.99,0,3.913,0.485,5.715,1.439c2.021,1.072,3.696,2.656,4.843,4.578c0.407,0.683,1.28,0.926,1.983,0.552
	c0.83-0.441,1.727-0.666,2.662-0.666c0.988,0,1.969,0.264,2.83,0.761c1.75,1.016,2.838,2.896,2.838,4.906
	c0,1.02-0.277,2.021-0.803,2.899c-0.32,0.533-0.275,1.208,0.111,1.695c0.113,0.143,0.223,0.289,0.326,0.439
	c0.721,1.053,1.188,2.287,1.354,3.603l0.01,0.077c0.043,0.333,0.084,0.648,0.084,0.941c0,2.895-1.564,5.6-4.082,7.06
	c-1.246,0.721-2.656,1.102-4.08,1.102c-1.295,0-2.541-0.303-3.707-0.899c-0.56-0.287-1.239-0.191-1.699,0.238
	c-0.691,0.647-1.444,1.208-2.237,1.668c-1.874,1.085-4,1.658-6.148,1.658c-5.646,0-10.546-3.827-11.917-9.309
	c-0.136-0.543-0.564-0.965-1.11-1.091c-0.814-0.189-1.569-0.484-2.245-0.877c-2.52-1.459-4.084-4.163-4.084-7.057
	C2.984,33.052,4.549,30.346,7.07,28.886z"/>
</svg>
