<?xml version="1.0" encoding="utf-8"?>
<!-- Generator: Adobe Illustrator 16.0.0, SVG Export Plug-In . SVG Version: 6.00 Build 0)  -->
<!DOCTYPE svg PUBLIC "-//W3C//DTD SVG 1.1//EN" "http://www.w3.org/Graphics/SVG/1.1/DTD/svg11.dtd">
<svg version="1.1" id="Layer_1" xmlns="http://www.w3.org/2000/svg" xmlns:xlink="http://www.w3.org/1999/xlink" x="0px" y="0px"
	 width="64px" height="64px" viewBox="0 0 64 64" enable-background="new 0 0 64 64" xml:space="preserve">
<g>
	<g>
		<defs>
			<rect id="SVGID_1_" x="12.653" y="11.428" width="37.714" height="26.286"/>
		</defs>
		<clipPath id="SVGID_2_">
			<use xlink:href="#SVGID_1_"  overflow="visible"/>
		</clipPath>
		<path clip-path="url(#SVGID_2_)" fill="#FFFFFF" d="M41.225,19.428c-0.343,0-0.681,0.022-1.014,0.059
			c-1.34-4.652-5.619-8.06-10.701-8.06c-6.153,0-11.142,4.989-11.142,11.143c0,0.515,0.046,1.018,0.115,1.515
			c-3.299,0.497-5.83,3.335-5.83,6.771c0,3.787,3.071,6.857,6.857,6.857h21.714c5.049,0,9.143-4.094,9.143-9.143
			S46.273,19.428,41.225,19.428"/>
	</g>
</g>
<rect x="15.75" y="40.609" transform="matrix(-0.8826 -0.4701 0.4701 -0.8826 11.5376 87.9553)" fill="#65C6F1" width="2" height="3.857"/>
<rect x="27.335" y="46.57" transform="matrix(-0.883 -0.4693 0.4693 -0.883 30.5923 104.6213)" fill="#65C6F1" width="2" height="3.856"/>
<rect x="24.132" y="40.465" transform="matrix(0.4695 -0.883 0.883 0.4695 -22.7856 45.01)" fill="#65C6F1" width="3.858" height="2"/>
<rect x="41.129" y="48.512" transform="matrix(0.4694 -0.883 0.883 0.4694 -20.8711 64.2943)" fill="#65C6F1" width="3.858" height="2"/>
<rect x="34.052" y="41.772" transform="matrix(-0.8827 -0.4699 0.4699 -0.8827 45.4552 98.7462)" fill="#65C6F1" width="1.999" height="3.857"/>
<rect x="40.985" y="40.771" transform="matrix(0.883 0.4693 -0.4693 0.883 24.9523 -14.7102)" fill="#65C6F1" width="2" height="3.857"/>
<rect x="20.425" y="46.419" transform="matrix(-0.883 -0.4694 0.4694 -0.883 17.6489 101.0942)" fill="#65C6F1" width="2.001" height="3.856"/>
</svg>
