<?xml version="1.0" encoding="utf-8"?>
<!-- Generator: Adobe Illustrator 16.0.0, SVG Export Plug-In . SVG Version: 6.00 Build 0)  -->
<!DOCTYPE svg PUBLIC "-//W3C//DTD SVG 1.1//EN" "http://www.w3.org/Graphics/SVG/1.1/DTD/svg11.dtd">
<svg version="1.1" id="Layer_1" xmlns="http://www.w3.org/2000/svg" xmlns:xlink="http://www.w3.org/1999/xlink" x="0px" y="0px"
	 width="64px" height="64px" viewBox="0 0 64 64" enable-background="new 0 0 64 64" xml:space="preserve">
<g>
	<path fill="#555655" d="M54.126,8.579c-2.625-1.517-5.864-1.81-8.658-0.847C42.003,2.927,36.375,0,30.423,0
		c-3.245,0-6.453,0.866-9.275,2.502c-1.921,1.112-3.607,2.542-5.023,4.261c-2.121,0.113-4.2,0.731-6.055,1.805
		c-4.17,2.417-6.761,6.903-6.761,11.706c0,4.803,2.591,9.287,6.762,11.701c0.825,0.478,1.718,0.868,2.666,1.167
		c0.922,2.943,2.581,5.623,4.835,7.799c0.719,0.693,1.867,0.674,2.561-0.047c0.695-0.72,0.674-1.867-0.046-2.562
		c-2.028-1.956-3.456-4.413-4.128-7.107c-0.165-0.658-0.684-1.169-1.344-1.324c-0.996-0.232-1.914-0.59-2.729-1.062
		c-3.056-1.769-4.954-5.05-4.954-8.565s1.898-6.8,4.955-8.571c1.51-0.875,3.221-1.337,4.908-1.337
		c0.051,0.003,0.103,0.007,0.155,0.009c0.603,0.025,1.159-0.251,1.514-0.726c1.229-1.645,2.743-2.994,4.5-4.012
		c2.272-1.318,4.852-2.014,7.459-2.014c5.295,0,10.085,2.729,12.813,7.304c0.494,0.83,1.552,1.125,2.406,0.669
		c1.008-0.536,2.096-0.808,3.232-0.808c1.199,0,2.389,0.32,3.434,0.926c2.125,1.232,3.443,3.511,3.443,5.95
		c0,1.24-0.337,2.458-0.973,3.522c-0.387,0.647-0.332,1.467,0.137,2.056c1.407,1.771,2.15,3.894,2.15,6.14
		c0,3.518-1.898,6.801-4.957,8.57c-1.51,0.876-3.223,1.339-4.949,1.339c-0.412,0-0.837-0.031-1.299-0.097
		c-0.993-0.137-1.904,0.555-2.043,1.547c-0.137,0.99,0.556,1.904,1.547,2.042c0.627,0.088,1.215,0.13,1.795,0.13
		c2.363,0,4.703-0.632,6.766-1.825c4.172-2.415,6.764-6.899,6.764-11.706c0-2.673-0.769-5.218-2.232-7.426
		c0.604-1.347,0.918-2.809,0.918-4.292C59.375,13.939,57.365,10.458,54.126,8.579z"/>
	<path fill="#499AD7" d="M33.812,62.188v-4.226c0-1.001-0.812-1.812-1.812-1.812s-1.811,0.811-1.811,1.812v4.226
		C30.189,63.188,31,64,32,64S33.812,63.188,33.812,62.188z"/>
	<path fill="#499AD7" d="M33.812,45.873c0-1-0.812-1.812-1.812-1.812s-1.811,0.812-1.811,1.812v6.044
		c0,1.001,0.811,1.812,1.811,1.812s1.812-0.811,1.812-1.812V45.873z"/>
	<path fill="#499AD7" d="M33.812,35.602c0-1-0.812-1.812-1.812-1.812s-1.811,0.812-1.811,1.812v4.227c0,1,0.811,1.812,1.811,1.812
		s1.812-0.812,1.812-1.812V35.602z"/>
	<path fill="#499AD7" d="M23.788,52.984c0,1,0.811,1.812,1.812,1.812s1.811-0.812,1.811-1.812V48.76
		c0-1.002-0.811-1.812-1.811-1.812s-1.812,0.81-1.812,1.812V52.984z"/>
	<path fill="#499AD7" d="M23.788,42.714c0,1,0.811,1.812,1.812,1.812s1.811-0.812,1.811-1.812v-6.046c0-1-0.811-1.811-1.811-1.811
		s-1.812,0.811-1.812,1.811V42.714z"/>
	<path fill="#499AD7" d="M25.599,32.435c1,0,1.811-0.811,1.811-1.811v-4.226c0-1-0.811-1.812-1.811-1.812s-1.812,0.812-1.812,1.812
		v4.226C23.788,31.624,24.599,32.435,25.599,32.435z"/>
	<path fill="#499AD7" d="M38.4,52.061c-1,0-1.811,0.812-1.811,1.812V58.1c0,1.002,0.811,1.812,1.811,1.812
		c1.002,0,1.812-0.81,1.812-1.812v-4.227C40.213,52.872,39.402,52.061,38.4,52.061z"/>
	<path fill="#499AD7" d="M40.213,41.782c0-1-0.811-1.812-1.812-1.812c-1,0-1.811,0.812-1.811,1.812v6.046
		c0,1,0.811,1.811,1.811,1.811c1.002,0,1.812-0.811,1.812-1.811V41.782z"/>
	<path fill="#499AD7" d="M40.213,31.511c0-1-0.811-1.812-1.812-1.812c-1,0-1.811,0.812-1.811,1.812v4.226
		c0,1,0.811,1.812,1.811,1.812c1.002,0,1.812-0.812,1.812-1.812V31.511z"/>
</g>
</svg>
