<?xml version="1.0" encoding="utf-8"?>
<!-- Generator: Adobe Illustrator 16.0.0, SVG Export Plug-In . SVG Version: 6.00 Build 0)  -->
<!DOCTYPE svg PUBLIC "-//W3C//DTD SVG 1.1//EN" "http://www.w3.org/Graphics/SVG/1.1/DTD/svg11.dtd">
<svg version="1.1" id="Layer_1" xmlns="http://www.w3.org/2000/svg" xmlns:xlink="http://www.w3.org/1999/xlink" x="0px" y="0px"
	 width="64px" height="64px" viewBox="0 0 64 64" enable-background="new 0 0 64 64" xml:space="preserve">
<g>
	<path fill="#555655" d="M45.744,12.041c0-0.893,0.09-1.809,0.268-2.722c0.084-0.437-0.053-0.887-0.365-1.205
		s-0.76-0.459-1.199-0.381c-6.455,1.154-11.598,5.956-13.28,12.19c-1.518-0.568-3.14-0.873-4.797-0.873
		c-2.418,0-4.809,0.645-6.912,1.864c-0.405,0.234-0.814,0.502-1.216,0.795c-0.602,0.44-0.733,1.285-0.293,1.887
		c0.44,0.601,1.285,0.733,1.886,0.292c0.325-0.236,0.652-0.451,0.976-0.638c1.694-0.982,3.617-1.502,5.56-1.502
		c1.741,0,3.407,0.396,4.901,1.132c0.067,0.055,0.139,0.106,0.219,0.148c1.828,0.97,3.341,2.402,4.38,4.141
		c0.049,0.083,0.105,0.156,0.168,0.224l0.539,0.902l1.135-0.605c0.748-0.399,1.559-0.602,2.408-0.602
		c0.668,0,1.332,0.134,1.951,0.39c0.191,0.082,0.379,0.172,0.559,0.276c1.584,0.918,2.566,2.619,2.566,4.438
		c0,0.919-0.25,1.826-0.727,2.622c-0.066,0.11-0.113,0.229-0.145,0.349l-0.285,0.476l0.398,0.499
		c0.037,0.073,0.082,0.144,0.133,0.209c0.822,1.034,1.348,2.298,1.521,3.656c0.016,0.133,0.057,0.256,0.109,0.374
		c0.014,0.188,0.023,0.378,0.023,0.569c0,2.62-1.416,5.066-3.693,6.386c-1.127,0.652-2.402,0.997-3.689,0.997
		c-1.168,0-2.297-0.272-3.355-0.812l-0.842-0.43l-0.691,0.646c-0.629,0.587-1.31,1.096-2.024,1.509
		c-1.458,0.842-3.042,1.334-4.71,1.464c-0.744,0.057-1.299,0.706-1.242,1.448c0.054,0.709,0.646,1.246,1.344,1.246
		c0.035,0,0.07-0.001,0.105-0.003c2.074-0.16,4.043-0.771,5.855-1.818c0.635-0.368,1.248-0.794,1.828-1.271
		c1.191,0.479,2.443,0.722,3.732,0.722c1.762,0,3.506-0.472,5.041-1.36c3.061-1.771,4.975-5.037,5.035-8.553
		c7.406-0.657,13.615-6.159,15.055-13.562c0.086-0.438-0.051-0.89-0.363-1.207c-0.312-0.316-0.762-0.46-1.201-0.38
		c-0.873,0.157-1.691,0.235-2.502,0.235C52.098,26.203,45.744,19.85,45.744,12.041z M60.838,28.875
		c-1.795,5.299-6.611,9.09-12.234,9.558c-0.275-1.068-0.723-2.086-1.342-3.02c0.449-1.003,0.686-2.093,0.686-3.199
		c0-2.775-1.5-5.369-3.914-6.771c-0.248-0.144-0.502-0.271-0.764-0.385c-1.789-0.796-3.861-0.901-5.709-0.274
		c-1.066-1.473-2.408-2.703-3.926-3.644c1.117-4.87,4.738-8.779,9.453-10.293c-0.029,0.4-0.043,0.798-0.043,1.193
		c0,9.298,7.564,16.862,16.863,16.862C60.217,28.902,60.527,28.893,60.838,28.875z"/>
	<path fill="#555655" d="M1.35,39.087h26.837c0.187,0,0.365-0.038,0.527-0.107c3.085-0.268,5.515-2.859,5.515-6.012
		c0-3.332-2.71-6.042-6.042-6.042c-3.331,0-6.041,2.71-6.041,6.042c0,1.269,0.396,2.447,1.067,3.42H1.35
		c-0.746,0-1.35,0.604-1.35,1.35C0,38.482,0.604,39.087,1.35,39.087z M28.187,29.625c1.843,0,3.342,1.499,3.342,3.342
		c0,1.842-1.499,3.34-3.342,3.34s-3.342-1.498-3.342-3.34C24.845,31.124,26.344,29.625,28.187,29.625z"/>
	<path fill="#555655" d="M0.002,29.917c0,0.746,0.604,1.35,1.35,1.35h8.07c0.186,0,0.363-0.038,0.524-0.105
		c3.086-0.267,5.517-2.859,5.517-6.012c0-3.332-2.71-6.043-6.042-6.043c-3.331,0-6.041,2.711-6.041,6.043
		c0,1.269,0.395,2.445,1.066,3.418H1.352C0.606,28.568,0.002,29.172,0.002,29.917z M9.422,21.806c1.843,0,3.342,1.5,3.342,3.344
		c0,1.841-1.5,3.339-3.342,3.339c-1.842,0-3.342-1.499-3.342-3.339C6.081,23.306,7.58,21.806,9.422,21.806z"/>
	<path fill="#555655" d="M1.352,46.907h11.209c-0.639,0.957-1.013,2.106-1.013,3.341c0,3.331,2.71,6.04,6.041,6.04
		s6.041-2.709,6.041-6.04s-2.709-6.041-6.041-6.041H1.352c-0.746,0-1.35,0.604-1.35,1.351C0.002,46.303,0.606,46.907,1.352,46.907z
		 M20.931,50.248c0,1.843-1.499,3.341-3.341,3.341s-3.342-1.498-3.342-3.341c0-1.842,1.5-3.341,3.342-3.341
		S20.931,48.406,20.931,50.248z"/>
</g>
</svg>
