<?xml version="1.0" encoding="utf-8"?>
<!-- Generator: Adobe Illustrator 16.0.0, SVG Export Plug-In . SVG Version: 6.00 Build 0)  -->
<!DOCTYPE svg PUBLIC "-//W3C//DTD SVG 1.1//EN" "http://www.w3.org/Graphics/SVG/1.1/DTD/svg11.dtd">
<svg version="1.1" id="Layer_1" xmlns="http://www.w3.org/2000/svg" xmlns:xlink="http://www.w3.org/1999/xlink" x="0px" y="0px"
	 width="64px" height="64px" viewBox="0 0 64 64" enable-background="new 0 0 64 64" xml:space="preserve">
<g>
	<path fill="#555655" d="M22.414,41.63v20.944c0,0.787,0.639,1.426,1.427,1.426c0.789,0,1.427-0.639,1.427-1.426V41.63
		c0-0.789-0.638-1.427-1.427-1.427C23.052,40.203,22.414,40.841,22.414,41.63z"/>
	<path fill="#555655" d="M17.372,32.769v20.943c0,0.789,0.639,1.427,1.427,1.427s1.427-0.638,1.427-1.427V32.769
		c0-0.788-0.639-1.427-1.427-1.427S17.372,31.981,17.372,32.769z"/>
	<path fill="#555655" d="M28.883,59.167c0.788,0,1.427-0.639,1.427-1.427V36.796c0-0.788-0.639-1.427-1.427-1.427
		s-1.427,0.639-1.427,1.427V57.74C27.456,58.528,28.095,59.167,28.883,59.167z"/>
	<path fill="#555655" d="M7.997,21.191c1.179-0.683,2.515-1.047,3.866-1.052c0.043,0.004,0.086,0.006,0.13,0.007
		c0.459,0.016,0.907-0.2,1.185-0.572c0.969-1.295,2.162-2.359,3.546-3.161c1.788-1.038,3.819-1.585,5.875-1.585
		c4.172,0,7.945,2.151,10.093,5.753c0.304,0.509,0.877,0.759,1.434,0.676c0.268,0.024,0.543-0.026,0.797-0.162
		c0.713-0.38,1.48-0.581,2.279-0.619c0.922,0.011,1.834,0.259,2.639,0.724c1.672,0.971,2.711,2.767,2.711,4.688
		c0,0.977-0.264,1.936-0.766,2.775c-0.305,0.51-0.262,1.154,0.107,1.62c1.109,1.395,1.695,3.067,1.695,4.836
		c0,2.771-1.496,5.357-3.904,6.751c-1.746,1.013-3.82,1.323-5.818,0.806c-0.762-0.198-1.542,0.261-1.739,1.023
		c-0.197,0.763,0.261,1.542,1.024,1.739c0.869,0.226,1.756,0.34,2.633,0.34c1.863,0,3.707-0.498,5.33-1.439
		c3.223-1.865,5.244-5.3,5.32-9.002c8-0.536,14.754-6.409,16.301-14.363c0.09-0.461-0.053-0.938-0.383-1.273
		c-0.332-0.335-0.807-0.486-1.27-0.403c-0.926,0.167-1.791,0.248-2.646,0.248c-8.256,0-14.973-6.715-14.973-14.969
		c0-0.938,0.096-1.907,0.283-2.878c0.09-0.461-0.055-0.937-0.385-1.272c-0.33-0.334-0.803-0.485-1.268-0.403
		C35.234,1.25,29.772,6.373,28.024,13.014c-1.692-0.675-3.525-1.04-5.426-1.04c-2.558,0-5.085,0.682-7.306,1.97
		c-1.513,0.875-2.841,2.003-3.956,3.356c-1.671,0.089-3.31,0.576-4.771,1.422C3.281,20.626,1.24,24.16,1.24,27.943
		s2.041,7.316,5.328,9.219c0.65,0.375,1.354,0.683,2.098,0.918c0.834,2.671,2.41,5.025,4.594,6.85
		c0.605,0.506,1.504,0.425,2.01-0.18c0.505-0.604,0.424-1.505-0.181-2.01c-1.937-1.617-3.279-3.751-3.884-6.168
		c-0.129-0.52-0.538-0.923-1.059-1.044c-0.783-0.184-1.506-0.465-2.149-0.836c-2.408-1.395-3.903-3.98-3.903-6.75
		S5.589,22.587,7.997,21.191z M40.656,3.314c-0.031,0.424-0.047,0.845-0.047,1.262c0,9.827,7.996,17.823,17.826,17.823
		c0.328,0,0.654-0.01,0.984-0.03c-1.906,5.623-7.025,9.642-13,10.112c-0.291-1.152-0.766-2.241-1.408-3.22
		c0.479-1.061,0.729-2.214,0.729-3.383c0-2.936-1.584-5.679-4.137-7.16c-1.354-0.78-2.916-1.143-4.463-1.086
		c-0.818-0.004-1.631,0.117-2.408,0.354c-1.096-1.498-2.477-2.781-4.073-3.78C31.838,9.052,35.666,4.917,40.656,3.314z"/>
</g>
</svg>
