<?xml version="1.0" encoding="utf-8"?>
<!-- Generator: Adobe Illustrator 16.0.0, SVG Export Plug-In . SVG Version: 6.00 Build 0)  -->
<!DOCTYPE svg PUBLIC "-//W3C//DTD SVG 1.1//EN" "http://www.w3.org/Graphics/SVG/1.1/DTD/svg11.dtd">
<svg version="1.1" id="Layer_1" xmlns="http://www.w3.org/2000/svg" xmlns:xlink="http://www.w3.org/1999/xlink" x="0px" y="0px"
	 width="64px" height="64px" viewBox="0 0 64 64" enable-background="new 0 0 64 64" xml:space="preserve">
<g>
	<path fill="#555655" d="M34.369,46.499c0-3.902-3.175-7.077-7.077-7.077H1.583c-0.874,0-1.581,0.708-1.581,1.581
		s0.708,1.581,1.581,1.581h19.82c-0.748,1.122-1.186,2.468-1.186,3.915c0,3.9,3.174,7.074,7.076,7.074S34.369,50.399,34.369,46.499z
		 M23.378,46.499c0-2.159,1.756-3.915,3.914-3.915s3.915,1.756,3.915,3.915c0,2.157-1.756,3.912-3.915,3.912
		S23.378,48.656,23.378,46.499z"/>
	<path fill="#555655" d="M1.581,33.424h38.126c0.219,0,0.427-0.044,0.615-0.124c3.614-0.314,6.461-3.351,6.461-7.044
		c0-3.902-3.175-7.078-7.076-7.078c-3.902,0-7.077,3.176-7.077,7.078c0,1.487,0.463,2.867,1.25,4.006H1.581
		C0.708,30.262,0,30.97,0,31.843C0,32.716,0.708,33.424,1.581,33.424z M39.707,22.34c2.157,0,3.914,1.756,3.914,3.916
		c0,2.157-1.757,3.912-3.914,3.912c-2.159,0-3.915-1.755-3.915-3.912C35.792,24.096,37.548,22.34,39.707,22.34z"/>
	<path fill="#555655" d="M1.583,24.265h16.143c0.218,0,0.425-0.044,0.613-0.124c3.615-0.313,6.463-3.35,6.463-7.044
		c0-3.903-3.174-7.079-7.077-7.079c-3.901,0-7.076,3.175-7.076,7.079c0,1.486,0.463,2.865,1.25,4.005H1.583
		c-0.874,0-1.581,0.707-1.581,1.581C0.001,23.557,0.709,24.265,1.583,24.265z M17.726,13.181c2.159,0,3.915,1.757,3.915,3.917
		c0,2.158-1.756,3.913-3.915,3.913c-2.158,0-3.914-1.755-3.914-3.913C13.812,14.938,15.568,13.181,17.726,13.181z"/>
	<path fill="#555655" d="M56.511,43.084c-1.317,0.764-2.812,1.169-4.321,1.169c-1.368,0-2.69-0.321-3.928-0.953l-0.989-0.506
		l-0.811,0.759c-0.734,0.687-1.532,1.281-2.371,1.768c-1.707,0.987-3.562,1.564-5.515,1.714c-0.871,0.066-1.522,0.826-1.456,1.697
		c0.064,0.829,0.757,1.46,1.575,1.46c0.04,0,0.081-0.002,0.122-0.005c2.43-0.187,4.737-0.902,6.857-2.131
		c0.744-0.43,1.462-0.929,2.142-1.487c1.396,0.562,2.862,0.847,4.373,0.847c2.066,0,4.108-0.552,5.906-1.595
		C61.737,43.712,64,39.798,64,35.604c0-2.334-0.671-4.555-1.95-6.482c0.527-1.175,0.803-2.452,0.803-3.748
		c0-3.25-1.755-6.289-4.583-7.931c-2.29-1.325-5.119-1.581-7.557-0.74c-3.039-4.25-7.854-6.749-13.135-6.749
		c-2.834,0-5.634,0.755-8.098,2.184c-0.484,0.281-0.964,0.595-1.424,0.933c-0.705,0.516-0.857,1.505-0.342,2.209
		c0.516,0.705,1.505,0.857,2.21,0.342c0.371-0.271,0.755-0.523,1.143-0.748c1.982-1.149,4.234-1.757,6.511-1.757
		c4.624,0,8.805,2.384,11.185,6.375l0.771,1.295l1.33-0.709c0.88-0.469,1.828-0.707,2.822-0.707c1.047,0,2.084,0.28,2.998,0.808
		c1.854,1.077,3.006,3.067,3.006,5.195c0,1.083-0.294,2.146-0.85,3.075l-0.562,0.938l0.681,0.857
		c1.229,1.544,1.878,3.398,1.878,5.359C60.838,38.673,59.18,41.539,56.511,43.084z"/>
</g>
</svg>
