<?xml version="1.0" encoding="utf-8"?>
<!-- Generator: Adobe Illustrator 16.0.0, SVG Export Plug-In . SVG Version: 6.00 Build 0)  -->
<!DOCTYPE svg PUBLIC "-//W3C//DTD SVG 1.1//EN" "http://www.w3.org/Graphics/SVG/1.1/DTD/svg11.dtd">
<svg version="1.1" id="Layer_1" xmlns="http://www.w3.org/2000/svg" xmlns:xlink="http://www.w3.org/1999/xlink" x="0px" y="0px"
	 width="64px" height="64px" viewBox="0 0 64 64" enable-background="new 0 0 64 64" xml:space="preserve">
<g>
	<path fill="#555655" d="M0,20.515c0,0.853,0.691,1.543,1.543,1.543h13.727c-1.057,1.791-1.828,3.763-2.262,5.853H9.143
		c-0.853,0-1.543,0.691-1.543,1.543c0,0.853,0.691,1.543,1.543,1.543h3.477c-0.013,0.284-0.02,0.569-0.02,0.855
		c0,1.729,0.233,3.404,0.662,5H2.327c-0.853,0-1.543,0.691-1.543,1.544c0,0.852,0.691,1.543,1.543,1.543h12.058
		c3.064,6.604,9.754,11.197,17.501,11.197c9.207,0,17.165-6.554,18.921-15.583c0.097-0.5-0.059-1.014-0.414-1.377
		c-0.356-0.362-0.866-0.527-1.368-0.439c-1.023,0.181-1.962,0.268-2.867,0.268c-3.496,0-6.735-1.116-9.385-3.007h25.685
		c0.853,0,1.543-0.69,1.543-1.543c0-0.852-0.69-1.543-1.543-1.543H33.508c-1.365-1.704-2.392-3.689-2.981-5.853h22.158
		c0.853,0,1.544-0.691,1.544-1.543c0-0.853-0.691-1.543-1.544-1.543H30.004c-0.028-0.385-0.047-0.771-0.047-1.162
		c0-1.016,0.104-2.062,0.307-3.109c0.098-0.5-0.058-1.015-0.415-1.377c-0.356-0.363-0.869-0.527-1.372-0.436
		c-4.363,0.779-8.157,2.984-10.943,6.084H1.543C0.691,18.972,0,19.662,0,20.515z M46.157,37.092c0.351,0,0.704-0.011,1.062-0.032
		c-2.193,6.48-8.333,10.99-15.334,10.99c-5.987,0-11.223-3.268-14.026-8.11h15.131c0.853,0,1.543-0.691,1.543-1.543
		c0-0.853-0.69-1.544-1.543-1.544H16.48c-0.512-1.575-0.793-3.256-0.793-5c0-0.287,0.02-0.571,0.035-0.855h16.384
		C35.627,34.744,40.622,37.092,46.157,37.092z M29.737,27.911H16.173c0.538-2.148,1.51-4.131,2.819-5.853h8.356
		C27.822,24.159,28.637,26.131,29.737,27.911z M26.921,16.445c-0.034,0.458-0.051,0.914-0.051,1.365c0,0.39,0.015,0.776,0.038,1.162
		h-4.824C23.521,17.88,25.145,17.013,26.921,16.445z"/>
</g>
</svg>
