<?xml version="1.0" encoding="utf-8"?>
<!-- Generator: Adobe Illustrator 16.0.0, SVG Export Plug-In . SVG Version: 6.00 Build 0)  -->
<!DOCTYPE svg PUBLIC "-//W3C//DTD SVG 1.1//EN" "http://www.w3.org/Graphics/SVG/1.1/DTD/svg11.dtd">
<svg version="1.1" id="Layer_1" xmlns="http://www.w3.org/2000/svg" xmlns:xlink="http://www.w3.org/1999/xlink" x="0px" y="0px"
	 width="64px" height="64px" viewBox="0 0 64 64" enable-background="new 0 0 64 64" xml:space="preserve">
<g>
	<path fill="#555655" d="M7.601,32c0,0.853,0.691,1.543,1.544,1.543h53.312C63.31,33.543,64,32.853,64,32
		c0-0.852-0.69-1.543-1.544-1.543H9.145C8.292,30.456,7.601,31.147,7.601,32z"/>
	<path fill="#555655" d="M34.532,40.94c0-0.852-0.691-1.543-1.543-1.543H2.327c-0.852,0-1.543,0.691-1.543,1.543
		c0,0.853,0.691,1.544,1.543,1.544h30.662C33.841,42.484,34.532,41.793,34.532,40.94z"/>
	<path fill="#555655" d="M1.543,24.603h51.14c0.853,0,1.543-0.691,1.543-1.543c0-0.853-0.69-1.543-1.543-1.543H1.543
		C0.691,21.516,0,22.207,0,23.059C0,23.911,0.691,24.603,1.543,24.603z"/>
</g>
</svg>
