<?xml version="1.0" encoding="utf-8"?>
<!-- Generator: Adobe Illustrator 16.0.0, SVG Export Plug-In . SVG Version: 6.00 Build 0)  -->
<!DOCTYPE svg PUBLIC "-//W3C//DTD SVG 1.1//EN" "http://www.w3.org/Graphics/SVG/1.1/DTD/svg11.dtd">
<svg version="1.1" id="Layer_1" xmlns="http://www.w3.org/2000/svg" xmlns:xlink="http://www.w3.org/1999/xlink" x="0px" y="0px"
	 width="64px" height="64px" viewBox="0 0 64 64" enable-background="new 0 0 64 64" xml:space="preserve">
<g>
	<path fill="#555655" d="M32,57.546c0.965,0,1.747-0.781,1.747-1.747V36.32c0-0.965-0.782-1.747-1.747-1.747
		c-0.965,0-1.748,0.782-1.748,1.747v19.479C30.252,56.765,31.034,57.546,32,57.546z"/>
	<path fill="#555655" d="M59.68,28.347c0-2.579-0.742-5.033-2.154-7.164c0.582-1.299,0.887-2.709,0.887-4.141
		c0-3.595-1.939-6.954-5.064-8.767c-2.52-1.455-5.627-1.748-8.35-0.815C41.637,2.762,36.314,0,30.479,0
		c-3.133,0-6.229,0.834-8.95,2.413c-1.854,1.074-3.48,2.454-4.845,4.109c-2.046,0.11-4.053,0.707-5.842,1.743
		c-4.023,2.333-6.522,6.66-6.522,11.293c0,4.634,2.499,8.959,6.525,11.29c0.797,0.461,1.658,0.837,2.569,1.124
		c1.021,3.272,2.951,6.156,5.626,8.391c0.742,0.619,1.844,0.52,2.461-0.221c0.619-0.74,0.521-1.843-0.22-2.462
		c-2.373-1.981-4.018-4.595-4.758-7.555c-0.159-0.636-0.659-1.129-1.297-1.278c-0.957-0.224-1.843-0.569-2.632-1.025
		c-2.949-1.708-4.78-4.875-4.78-8.265c0-3.391,1.832-6.56,4.78-8.27c1.444-0.836,3.08-1.282,4.734-1.29
		c0.049,0.005,0.1,0.008,0.151,0.01c0.575,0.03,1.118-0.242,1.459-0.701c1.185-1.586,2.646-2.888,4.342-3.872
		c2.19-1.271,4.679-1.942,7.197-1.942c5.109,0,9.73,2.634,12.363,7.047c0.479,0.802,1.5,1.084,2.324,0.645
		c0.967-0.518,2.016-0.779,3.115-0.779c1.156,0,2.305,0.309,3.314,0.893c2.049,1.188,3.322,3.389,3.322,5.742
		c0,1.195-0.326,2.371-0.939,3.398c-0.375,0.625-0.322,1.414,0.131,1.984c1.357,1.708,2.076,3.757,2.076,5.923
		c0,3.394-1.832,6.561-4.783,8.27c-2.139,1.24-4.68,1.621-7.127,0.986c-0.932-0.242-1.887,0.318-2.129,1.254
		c-0.242,0.934,0.318,1.887,1.254,2.129c1.066,0.276,2.152,0.417,3.227,0.417c2.283,0,4.539-0.61,6.527-1.763
		C57.18,37.31,59.68,32.982,59.68,28.347z"/>
	<circle fill="#555655" cx="32" cy="61.972" r="2.028"/>
	<path fill="#555655" d="M38.176,51.628c0.965,0,1.746-0.782,1.746-1.747v-19.48c0-0.964-0.781-1.747-1.746-1.747
		c-0.967,0-1.748,0.783-1.748,1.747v19.48C36.428,50.846,37.209,51.628,38.176,51.628z"/>
	<circle fill="#555655" cx="38.176" cy="56.052" r="2.03"/>
	<path fill="#555655" d="M25.823,46.695c0.965,0,1.748-0.782,1.748-1.747v-19.48c0-0.966-0.782-1.748-1.748-1.748
		s-1.748,0.782-1.748,1.748v19.48C24.076,45.913,24.858,46.695,25.823,46.695z"/>
	<circle fill="#555655" cx="25.823" cy="51.119" r="2.029"/>
</g>
</svg>
