<?xml version="1.0" encoding="utf-8"?>
<!-- Generator: Adobe Illustrator 16.0.0, SVG Export Plug-In . SVG Version: 6.00 Build 0)  -->
<!DOCTYPE svg PUBLIC "-//W3C//DTD SVG 1.1//EN" "http://www.w3.org/Graphics/SVG/1.1/DTD/svg11.dtd">
<svg version="1.1" id="Layer_1" xmlns="http://www.w3.org/2000/svg" xmlns:xlink="http://www.w3.org/1999/xlink" x="0px" y="0px"
	 width="64px" height="64px" viewBox="0 0 64 64" enable-background="new 0 0 64 64" xml:space="preserve">
<g>
	<circle fill="#555655" cx="23.947" cy="62.351" r="1.649"/>
	<g>
		<path fill="#555655" d="M23.871,58.74c0.785,0,1.421-0.637,1.421-1.422V41.475c0-0.785-0.637-1.422-1.421-1.422
			c-0.786,0-1.421,0.637-1.421,1.422v15.844C22.449,58.104,23.085,58.74,23.871,58.74z"/>
		<path fill="#555655" d="M33.146,45.27c0.867,0.225,1.75,0.338,2.623,0.338c1.855,0,3.691-0.496,5.309-1.434
			c3.211-1.857,5.225-5.279,5.301-8.969c7.969-0.533,14.699-6.384,16.24-14.309c0.09-0.46-0.053-0.935-0.383-1.269
			c-0.328-0.334-0.801-0.485-1.264-0.4c-0.92,0.166-1.783,0.246-2.637,0.246c-8.225,0-14.916-6.69-14.916-14.914
			c0-0.937,0.094-1.901,0.281-2.866c0.09-0.46-0.055-0.935-0.383-1.269s-0.803-0.484-1.264-0.402
			C35.221,1.245,29.78,6.35,28.039,12.966c-1.686-0.673-3.512-1.037-5.406-1.037c-2.546,0-5.063,0.679-7.279,1.964
			c-1.508,0.874-2.83,1.996-3.94,3.342c-1.665,0.089-3.297,0.575-4.753,1.418c-3.273,1.897-5.306,5.416-5.306,9.186
			c0,3.769,2.033,7.287,5.307,9.184c0.647,0.373,1.347,0.68,2.091,0.914c0.83,2.662,2.4,5.008,4.576,6.826
			c0.604,0.504,1.5,0.422,2.001-0.18c0.503-0.602,0.424-1.5-0.178-2.002c-1.931-1.613-3.268-3.738-3.87-6.146
			c-0.129-0.518-0.536-0.918-1.055-1.039c-0.782-0.184-1.502-0.463-2.141-0.834c-2.399-1.389-3.889-3.965-3.889-6.723
			c0-2.759,1.49-5.336,3.889-6.727c1.174-0.68,2.503-1.043,3.846-1.049c0.049,0.003,0.098,0.007,0.149,0.008
			c0.464,0.031,0.892-0.204,1.167-0.57c0.964-1.291,2.152-2.35,3.532-3.149c1.783-1.034,3.807-1.581,5.853-1.581
			c4.157,0,7.916,2.143,10.056,5.732c0.303,0.508,0.875,0.756,1.429,0.674c0.266,0.024,0.541-0.026,0.793-0.161
			c0.709-0.376,1.471-0.578,2.264-0.617c0.922,0.01,1.832,0.258,2.637,0.723c1.666,0.967,2.701,2.757,2.701,4.67
			c0,0.973-0.264,1.929-0.764,2.764c-0.303,0.508-0.26,1.15,0.107,1.614c1.104,1.389,1.688,3.055,1.688,4.819
			c0,2.76-1.49,5.336-3.891,6.725c-1.738,1.008-3.801,1.316-5.795,0.803c-0.758-0.197-1.536,0.262-1.732,1.021
			C31.928,44.299,32.385,45.074,33.146,45.27z M40.623,3.302c-0.031,0.422-0.047,0.841-0.047,1.257
			c0,9.791,7.967,17.756,17.76,17.756c0.326,0,0.652-0.01,0.98-0.03c-1.898,5.603-7,9.605-12.951,10.075
			c-0.289-1.148-0.762-2.233-1.402-3.209c0.477-1.057,0.725-2.206,0.725-3.371c0-2.925-1.578-5.658-4.121-7.133
			c-1.352-0.78-2.914-1.14-4.459-1.082c-0.811-0.003-1.617,0.117-2.387,0.352c-1.092-1.492-2.467-2.771-4.057-3.766
			C31.838,9.02,35.652,4.899,40.623,3.302z"/>
		<path fill="#555655" d="M28.894,53.926c0.786,0,1.421-0.635,1.421-1.422V36.66c0-0.785-0.636-1.422-1.421-1.422
			c-0.785,0-1.421,0.637-1.421,1.422v15.844C27.472,53.291,28.109,53.926,28.894,53.926z"/>
		<circle fill="#555655" cx="28.894" cy="57.525" r="1.65"/>
		<path fill="#555655" d="M18.847,49.914c0.785,0,1.421-0.637,1.421-1.422V32.647c0-0.785-0.637-1.421-1.421-1.421
			c-0.786,0-1.421,0.637-1.421,1.421v15.845C17.425,49.277,18.061,49.914,18.847,49.914z"/>
		<circle fill="#555655" cx="18.847" cy="53.514" r="1.65"/>
	</g>
</g>
</svg>
