<?xml version="1.0" encoding="utf-8"?>
<!-- Generator: Adobe Illustrator 16.0.0, SVG Export Plug-In . SVG Version: 6.00 Build 0)  -->
<!DOCTYPE svg PUBLIC "-//W3C//DTD SVG 1.1//EN" "http://www.w3.org/Graphics/SVG/1.1/DTD/svg11.dtd">
<svg version="1.1" id="Layer_1" xmlns="http://www.w3.org/2000/svg" xmlns:xlink="http://www.w3.org/1999/xlink" x="0px" y="0px"
	 width="64px" height="64px" viewBox="0 0 64 64" enable-background="new 0 0 64 64" xml:space="preserve">
<g>
	<path fill="#555655" d="M33.755,62.245V36.481c0-0.969-0.785-1.755-1.755-1.755s-1.755,0.786-1.755,1.755v25.764
		C30.245,63.215,31.03,64,32,64S33.755,63.215,33.755,62.245z"/>
	<path fill="#555655" d="M27.551,51.347V25.582c0-0.97-0.785-1.755-1.755-1.755s-1.755,0.785-1.755,1.755v25.765
		c0,0.969,0.786,1.755,1.755,1.755S27.551,52.315,27.551,51.347z"/>
	<path fill="#555655" d="M39.958,56.301V30.536c0-0.97-0.786-1.755-1.755-1.755c-0.97,0-1.756,0.785-1.756,1.755v25.765
		c0,0.969,0.786,1.755,1.756,1.755C39.172,58.056,39.958,57.27,39.958,56.301z"/>
	<path fill="#555655" d="M53.441,8.314c-2.532-1.462-5.652-1.756-8.389-0.818C41.694,2.837,36.239,0,30.473,0
		c-3.145,0-6.253,0.839-8.99,2.425c-1.863,1.079-3.496,2.465-4.867,4.127c-2.054,0.11-4.07,0.71-5.868,1.752
		c-4.041,2.341-6.551,6.688-6.551,11.342c0,4.654,2.51,8.999,6.551,11.337c0.798,0.463,1.664,0.841,2.583,1.131
		c1.026,3.285,2.965,6.182,5.651,8.427c0.744,0.623,1.85,0.522,2.472-0.221s0.523-1.851-0.221-2.473
		c-2.383-1.991-4.036-4.616-4.779-7.589c-0.159-0.639-0.662-1.134-1.303-1.283c-0.966-0.227-1.855-0.573-2.645-1.03
		c-2.96-1.714-4.8-4.895-4.8-8.3c0-3.406,1.84-6.588,4.801-8.305c1.453-0.842,3.097-1.29,4.758-1.297
		c0.058,0.004,0.115,0.008,0.175,0.009c0.566,0.012,1.102-0.251,1.44-0.704c1.189-1.593,2.656-2.9,4.361-3.887
		c2.202-1.277,4.703-1.952,7.229-1.952c5.131,0,9.771,2.645,12.416,7.078c0.479,0.803,1.506,1.089,2.333,0.649
		c0.974-0.519,2.027-0.783,3.133-0.783c1.16,0,2.312,0.311,3.327,0.897c2.059,1.194,3.336,3.404,3.336,5.766
		c0,1.202-0.326,2.382-0.942,3.412c-0.375,0.627-0.322,1.421,0.132,1.994c1.364,1.715,2.084,3.773,2.084,5.951
		c0,3.408-1.84,6.589-4.803,8.304c-2.147,1.244-4.688,1.627-7.161,0.992c-0.936-0.24-1.895,0.324-2.136,1.264
		c-0.241,0.938,0.323,1.895,1.263,2.136c1.072,0.275,2.162,0.416,3.238,0.416c2.291,0,4.559-0.613,6.555-1.77
		c4.043-2.34,6.555-6.687,6.555-11.342c0-2.591-0.744-5.057-2.164-7.197c0.585-1.304,0.891-2.721,0.891-4.159
		C58.528,13.507,56.58,10.135,53.441,8.314z"/>
</g>
</svg>
