<?xml version="1.0" encoding="utf-8"?>
<!-- Generator: Adobe Illustrator 16.0.0, SVG Export Plug-In . SVG Version: 6.00 Build 0)  -->
<!DOCTYPE svg PUBLIC "-//W3C//DTD SVG 1.1//EN" "http://www.w3.org/Graphics/SVG/1.1/DTD/svg11.dtd">
<svg version="1.1" id="Layer_1" xmlns="http://www.w3.org/2000/svg" xmlns:xlink="http://www.w3.org/1999/xlink" x="0px" y="0px"
	 width="64px" height="64px" viewBox="0 0 64 64" enable-background="new 0 0 64 64" xml:space="preserve">
<g>
	<g>
		<path fill="#555655" d="M21.558,48.996l-3.072,3.072c-0.391,0.391-0.391,1.023,0,1.414c0.195,0.195,0.451,0.293,0.707,0.293
			s0.512-0.098,0.707-0.293l3.072-3.072c0.391-0.391,0.391-1.023,0-1.414S21.948,48.605,21.558,48.996z"/>
		<path fill="#555655" d="M19.698,41.965c-0.391-0.391-1.023-0.391-1.414,0l-3.072,3.072c-0.391,0.391-0.391,1.023,0,1.414
			c0.195,0.195,0.451,0.293,0.707,0.293s0.512-0.098,0.707-0.293l3.072-3.072C20.089,42.988,20.089,42.355,19.698,41.965z"/>
		<path fill="#555655" d="M33.7,48.996l-3.072,3.072c-0.391,0.391-0.391,1.023,0,1.414c0.195,0.195,0.451,0.293,0.707,0.293
			s0.512-0.098,0.707-0.293l3.072-3.072c0.391-0.391,0.391-1.023,0-1.414S34.091,48.605,33.7,48.996z"/>
		<path fill="#555655" d="M31.841,41.965c-0.391-0.391-1.023-0.391-1.414,0l-3.072,3.072c-0.391,0.391-0.391,1.023,0,1.414
			c0.195,0.195,0.451,0.293,0.707,0.293s0.512-0.098,0.707-0.293l3.072-3.072C32.231,42.988,32.231,42.355,31.841,41.965z"/>
		<path fill="#555655" d="M43.983,41.965c-0.391-0.391-1.023-0.391-1.414,0l-3.072,3.072c-0.391,0.391-0.391,1.023,0,1.414
			c0.195,0.195,0.451,0.293,0.707,0.293s0.512-0.098,0.707-0.293l3.072-3.072C44.374,42.988,44.374,42.355,43.983,41.965z"/>
	</g>
	<path fill="#555655" d="M43.365,37.787H16.756c-3.861,0-7.002-3.141-7.002-7.001c0-3.844,3.112-6.975,6.949-7.002
		c0.54-6.74,6.146-12.004,12.957-12.004c4.611,0,8.812,2.408,11.157,6.338c0.837-0.223,1.69-0.336,2.548-0.336
		c5.515,0,10.002,4.486,10.002,10.004C53.367,33.299,48.88,37.787,43.365,37.787z M16.756,25.784c-2.758,0-5.002,2.244-5.002,5.002
		c0,2.757,2.244,5.001,5.002,5.001h26.609c4.412,0,8.002-3.589,8.002-8.001c0-4.414-3.59-8.004-8.002-8.004
		c-0.907,0-1.812,0.158-2.689,0.475l-0.826,0.295l-0.401-0.779c-1.897-3.697-5.647-5.992-9.788-5.992
		c-6.067,0-11.004,4.936-11.004,11.004v1.162l-1.146-0.098C17.218,25.803,16.979,25.784,16.756,25.784z"/>
</g>
</svg>
