<?xml version="1.0" encoding="utf-8"?>
<!-- Generator: Adobe Illustrator 16.0.0, SVG Export Plug-In . SVG Version: 6.00 Build 0)  -->
<!DOCTYPE svg PUBLIC "-//W3C//DTD SVG 1.1//EN" "http://www.w3.org/Graphics/SVG/1.1/DTD/svg11.dtd">
<svg version="1.1" id="Layer_1" xmlns="http://www.w3.org/2000/svg" xmlns:xlink="http://www.w3.org/1999/xlink" x="0px" y="0px"
	 width="64px" height="64px" viewBox="0 0 64 64" enable-background="new 0 0 64 64" xml:space="preserve">
<g>
	<path fill="#EEB254" d="M31.965,9.668c0.831,0,1.504-0.673,1.504-1.504v-6.66C33.471,0.673,32.796,0,31.965,0
		s-1.504,0.673-1.504,1.504v6.661C30.461,8.995,31.135,9.668,31.965,9.668z"/>
	<path fill="#EEB254" d="M33.471,62.496V55.84c0-0.83-0.674-1.504-1.505-1.504s-1.504,0.674-1.504,1.504v6.656
		c0,0.83,0.673,1.504,1.504,1.504C32.796,64,33.471,63.326,33.471,62.496z"/>
	<path fill="#EEB254" d="M14.047,16.208c0.293,0.294,0.678,0.44,1.063,0.44c0.385,0,0.77-0.146,1.063-0.44
		c0.588-0.587,0.588-1.54,0-2.127l-4.707-4.708c-0.586-0.587-1.539-0.587-2.127,0c-0.587,0.587-0.587,1.54,0,2.127L14.047,16.208z"
		/>
	<path fill="#EEB254" d="M53.529,55.072c0.385,0,0.77-0.146,1.062-0.439c0.588-0.588,0.588-1.541,0.001-2.127l-4.706-4.713
		c-0.588-0.588-1.539-0.588-2.128-0.002c-0.588,0.588-0.588,1.541-0.001,2.127l4.707,4.713
		C52.76,54.924,53.145,55.072,53.529,55.072z"/>
	<path fill="#EEB254" d="M1.471,33.504h6.658c0.831,0,1.504-0.672,1.504-1.503s-0.673-1.504-1.504-1.504H1.471
		c-0.831,0-1.504,0.673-1.504,1.504S0.641,33.504,1.471,33.504z"/>
	<path fill="#EEB254" d="M54.302,32c0,0.831,0.673,1.503,1.505,1.503h6.656c0.831,0,1.504-0.672,1.504-1.503
		s-0.673-1.504-1.504-1.504h-6.656C54.975,30.497,54.302,31.169,54.302,32z"/>
	<path fill="#EEB254" d="M11.466,54.631l4.708-4.713c0.587-0.586,0.587-1.539-0.001-2.125c-0.587-0.588-1.54-0.588-2.126,0
		l-4.708,4.711c-0.587,0.588-0.587,1.541,0.001,2.129c0.293,0.293,0.678,0.439,1.063,0.439
		C10.788,55.072,11.173,54.924,11.466,54.631z"/>
	<path fill="#EEB254" d="M48.822,16.648c0.385,0,0.771-0.146,1.062-0.44l4.707-4.708c0.588-0.587,0.588-1.54,0-2.127
		c-0.587-0.587-1.54-0.587-2.127,0l-4.707,4.708c-0.587,0.587-0.587,1.54,0,2.127C48.053,16.502,48.438,16.648,48.822,16.648z"/>
	<path fill="#EEB254" d="M31.967,50.795c10.363,0,18.795-8.432,18.795-18.794c0-10.362-8.432-18.791-18.795-18.791
		c-10.362,0-18.793,8.429-18.793,18.791C13.174,42.363,21.604,50.795,31.967,50.795z M31.967,16.218
		c8.705,0,15.786,7.08,15.786,15.783c0,8.705-7.081,15.787-15.786,15.787c-8.704,0-15.785-7.082-15.785-15.787
		C16.182,23.297,23.263,16.218,31.967,16.218z"/>
</g>
</svg>
