<?xml version="1.0" encoding="utf-8"?>
<!-- Generator: Adobe Illustrator 16.0.0, SVG Export Plug-In . SVG Version: 6.00 Build 0)  -->
<!DOCTYPE svg PUBLIC "-//W3C//DTD SVG 1.1//EN" "http://www.w3.org/Graphics/SVG/1.1/DTD/svg11.dtd">
<svg version="1.1" id="Layer_1" xmlns="http://www.w3.org/2000/svg" xmlns:xlink="http://www.w3.org/1999/xlink" x="0px" y="0px"
	 width="64px" height="64px" viewBox="0 0 64 64" enable-background="new 0 0 64 64" xml:space="preserve">
<path fill="#555655" d="M32.278,64c15.398,0,28.705-10.959,31.642-26.057c0.162-0.836-0.098-1.699-0.695-2.305
	c-0.598-0.607-1.451-0.879-2.293-0.73c-1.672,0.301-3.238,0.447-4.789,0.447c-14.936,0-27.086-12.148-27.086-27.079
	c0-1.7,0.171-3.45,0.513-5.202c0.163-0.835-0.098-1.697-0.694-2.304c-0.598-0.606-1.46-0.882-2.293-0.729
	C11.197,2.79,0.032,16.13,0.032,31.759C0.032,49.537,14.497,64,32.278,64z M23.979,5.993c-0.056,0.766-0.084,1.529-0.084,2.284
	c0,17.777,14.464,32.241,32.248,32.241c0.592,0,1.184-0.02,1.781-0.055c-3.672,10.836-13.939,18.375-25.646,18.375
	c-14.934,0-27.084-12.146-27.084-27.079C5.194,19.855,12.906,9.533,23.979,5.993z"/>
</svg>
