<?xml version="1.0" encoding="utf-8"?>
<!-- Generator: Adobe Illustrator 16.0.0, SVG Export Plug-In . SVG Version: 6.00 Build 0)  -->
<!DOCTYPE svg PUBLIC "-//W3C//DTD SVG 1.1//EN" "http://www.w3.org/Graphics/SVG/1.1/DTD/svg11.dtd">
<svg version="1.1" id="Layer_1" xmlns="http://www.w3.org/2000/svg" xmlns:xlink="http://www.w3.org/1999/xlink" x="0px" y="0px"
	 width="64px" height="64px" viewBox="0 0 64 64" enable-background="new 0 0 64 64" xml:space="preserve">
<path fill="#555655" d="M32.848,58.299c12.384,0,23.086-8.812,25.448-20.957c0.131-0.672-0.078-1.365-0.56-1.852
	c-0.479-0.49-1.168-0.707-1.845-0.588c-1.345,0.242-2.604,0.359-3.852,0.359c-12.012,0-21.783-9.771-21.783-21.778
	c0-1.367,0.138-2.774,0.412-4.184c0.131-0.671-0.078-1.365-0.558-1.853c-0.481-0.488-1.174-0.709-1.844-0.586
	C15.894,9.071,6.915,19.799,6.915,32.369C6.915,46.668,18.548,58.299,32.848,58.299z M26.174,11.647
	c-0.045,0.616-0.068,1.229-0.068,1.836c0,14.297,11.633,25.929,25.934,25.929c0.477,0,0.953-0.014,1.433-0.041
	c-2.952,8.713-11.21,14.777-20.625,14.777c-12.01,0-21.782-9.77-21.782-21.779C11.066,22.795,17.269,14.494,26.174,11.647z"/>
</svg>
