<?xml version="1.0" encoding="utf-8"?>
<!-- Generator: Adobe Illustrator 16.0.0, SVG Export Plug-In . SVG Version: 6.00 Build 0)  -->
<!DOCTYPE svg PUBLIC "-//W3C//DTD SVG 1.1//EN" "http://www.w3.org/Graphics/SVG/1.1/DTD/svg11.dtd">
<svg version="1.1" id="Layer_1" xmlns="http://www.w3.org/2000/svg" xmlns:xlink="http://www.w3.org/1999/xlink" x="0px" y="0px"
	 width="64px" height="64px" viewBox="0 0 64 64" enable-background="new 0 0 64 64" xml:space="preserve">
<path fill="#555655" d="M32.214,57.178c11.844,0,22.08-8.43,24.339-20.043c0.125-0.643-0.075-1.307-0.534-1.772
	c-0.46-0.467-1.116-0.676-1.764-0.562c-1.286,0.231-2.491,0.344-3.685,0.344c-11.488,0-20.834-9.345-20.834-20.83
	c0-1.307,0.132-2.653,0.395-4.001c0.125-0.642-0.075-1.306-0.534-1.772c-0.46-0.466-1.123-0.679-1.764-0.561
	C15.999,10.095,7.41,20.356,7.41,32.378C7.41,46.053,18.537,57.178,32.214,57.178z M25.83,12.559
	c-0.042,0.589-0.064,1.176-0.064,1.756c0,13.674,11.126,24.8,24.805,24.8c0.455,0,0.911-0.015,1.37-0.042
	c-2.824,8.335-10.722,14.134-19.727,14.134c-11.488,0-20.833-9.343-20.833-20.829C11.38,23.221,17.313,15.282,25.83,12.559z"/>
</svg>
