<?xml version="1.0" encoding="utf-8"?>
<!-- Generator: Adobe Illustrator 16.0.0, SVG Export Plug-In . SVG Version: 6.00 Build 0)  -->
<!DOCTYPE svg PUBLIC "-//W3C//DTD SVG 1.1//EN" "http://www.w3.org/Graphics/SVG/1.1/DTD/svg11.dtd">
<svg version="1.1" id="Layer_1" xmlns="http://www.w3.org/2000/svg" xmlns:xlink="http://www.w3.org/1999/xlink" x="0px" y="0px"
	 width="64px" height="64px" viewBox="0 0 64 64" enable-background="new 0 0 64 64" xml:space="preserve">
<g>
	<path fill="#555655" d="M63.973,25.971c0.094-0.484-0.057-0.982-0.402-1.333s-0.842-0.508-1.326-0.422
		c-0.971,0.175-1.877,0.26-2.77,0.26c-8.635,0-15.66-7.024-15.66-15.658c0-0.985,0.1-1.997,0.295-3.008
		c0.096-0.484-0.055-0.982-0.4-1.333s-0.84-0.508-1.326-0.422c-7.129,1.275-12.81,6.573-14.677,13.45
		c-1.683-0.627-3.493-0.961-5.365-0.961c-2.677,0-5.319,0.712-7.645,2.061c-1.583,0.917-2.971,2.095-4.137,3.509
		c-1.748,0.094-3.461,0.604-4.99,1.489C2.134,25.595,0,29.291,0,33.248c0,3.957,2.134,7.65,5.572,9.641
		c0.681,0.395,1.417,0.715,2.196,0.961c0.761,2.428,2.126,4.633,3.984,6.426c0.592,0.572,1.538,0.557,2.11-0.037
		s0.556-1.539-0.038-2.111c-1.67-1.611-2.847-3.637-3.402-5.855c-0.135-0.543-0.563-0.963-1.108-1.09
		c-0.817-0.191-1.574-0.486-2.248-0.877c-2.517-1.457-4.082-4.16-4.082-7.057c0-2.897,1.564-5.604,4.083-7.063
		c1.233-0.715,2.628-1.095,4.04-1.102c0.046,0.004,0.092,0.007,0.14,0.009c0.487,0.015,0.948-0.21,1.239-0.6
		c1.012-1.354,2.26-2.466,3.708-3.306c1.87-1.084,3.996-1.657,6.147-1.657c1.952,0,3.82,0.454,5.49,1.289
		c0.07,0.056,0.144,0.106,0.225,0.149c1.943,1.032,3.56,2.538,4.7,4.357c0.047,0.075,0.097,0.146,0.142,0.221
		c0.409,0.686,1.284,0.928,1.985,0.552c0.256-0.137,0.521-0.246,0.791-0.341c0.6-0.211,1.223-0.326,1.871-0.326
		c0.986,0,1.965,0.265,2.828,0.763c1.42,0.825,2.393,2.221,2.713,3.792c0.074,0.363,0.125,0.734,0.125,1.112
		c0,0.102-0.016,0.202-0.021,0.303c-0.049,0.915-0.309,1.806-0.781,2.595c-0.32,0.535-0.275,1.211,0.111,1.697
		c0.016,0.021,0.031,0.043,0.047,0.064c0.107,0.135,0.207,0.273,0.303,0.414c0.084,0.125,0.164,0.25,0.242,0.379
		c0.012,0.021,0.023,0.041,0.037,0.061c0.549,0.941,0.908,2.004,1.051,3.123c0.012,0.082,0.031,0.162,0.053,0.24
		c0.025,0.258,0.041,0.518,0.041,0.777c0,2.898-1.564,5.605-4.084,7.062c-1.244,0.721-2.654,1.102-4.078,1.102
		c-0.34,0-0.689-0.025-1.07-0.078c-0.814-0.113-1.57,0.459-1.682,1.275c-0.113,0.816,0.457,1.57,1.273,1.682
		c0.518,0.072,1.002,0.105,1.479,0.105c1.949,0,3.877-0.52,5.574-1.504c3.373-1.951,5.488-5.551,5.564-9.428
		C55.484,40.264,62.377,34.174,63.973,25.971z M46.928,38.004c-0.303-1.193-0.799-2.328-1.49-3.369
		c0.363-0.812,0.598-1.675,0.699-2.559c0.002-0.021,0.008-0.042,0.01-0.065c0.02-0.192,0.023-0.387,0.031-0.581
		c0.004-0.111,0.018-0.221,0.018-0.332l0,0v-0.001c0-0.743-0.1-1.474-0.283-2.178c-0.58-2.204-2.021-4.136-4.043-5.31
		c-2.152-1.241-4.801-1.492-7.129-0.694c-1.182-1.651-2.648-3.016-4.31-4.058c1.241-5.374,5.239-9.687,10.446-11.359
		c-0.031,0.443-0.047,0.883-0.047,1.319c0,10.279,8.363,18.642,18.645,18.642c0.342,0,0.684-0.011,1.029-0.031
		C58.514,33.303,53.168,37.502,46.928,38.004z"/>
	<path fill="#555655" d="M23.639,59.967c0.824,0,1.492-0.668,1.492-1.492l0.001-3.783l3.265,1.908
		c0.236,0.139,0.495,0.203,0.751,0.203c0.513,0,1.012-0.264,1.29-0.738c0.416-0.711,0.176-1.625-0.535-2.041l-3.307-1.934
		l3.308-1.934c0.711-0.414,0.951-1.328,0.535-2.041c-0.416-0.711-1.33-0.951-2.041-0.535l-3.266,1.908l0.001-3.783
		c0-0.824-0.668-1.492-1.492-1.492s-1.492,0.668-1.492,1.492l-0.001,3.785l-3.268-1.91c-0.711-0.416-1.625-0.176-2.041,0.535
		c-0.416,0.713-0.176,1.627,0.535,2.041l3.308,1.934l-3.307,1.934c-0.711,0.416-0.951,1.33-0.535,2.041
		c0.278,0.475,0.777,0.738,1.29,0.738c0.255,0,0.515-0.064,0.751-0.203l3.267-1.908l-0.001,3.783
		C22.146,59.299,22.815,59.967,23.639,59.967z"/>
</g>
</svg>
