<?xml version="1.0" encoding="utf-8"?>
<!-- Generator: Adobe Illustrator 16.0.0, SVG Export Plug-In . SVG Version: 6.00 Build 0)  -->
<!DOCTYPE svg PUBLIC "-//W3C//DTD SVG 1.1//EN" "http://www.w3.org/Graphics/SVG/1.1/DTD/svg11.dtd">
<svg version="1.1" id="Layer_1" xmlns="http://www.w3.org/2000/svg" xmlns:xlink="http://www.w3.org/1999/xlink" x="0px" y="0px"
	 width="64px" height="64px" viewBox="0 0 64 64" enable-background="new 0 0 64 64" xml:space="preserve">
<g>
	<path fill="#555655" d="M32.001,40.066c-1.115,0-2.02,0.904-2.02,2.02l-0.001,5.123l-4.423-2.586
		c-0.963-0.564-2.2-0.238-2.763,0.725c-0.562,0.963-0.238,2.201,0.725,2.764l4.478,2.617l-4.476,2.617
		c-0.963,0.562-1.288,1.801-0.725,2.764c0.375,0.643,1.051,1,1.746,1c0.346,0,0.697-0.09,1.018-0.275l4.419-2.584v5.121
		c0,1.115,0.904,2.02,2.02,2.02s2.02-0.904,2.02-2.02V54.25l4.421,2.584c0.32,0.186,0.671,0.275,1.017,0.275
		c0.694,0,1.371-0.357,1.746-1c0.562-0.963,0.239-2.201-0.725-2.764l-4.477-2.617l4.478-2.617c0.964-0.562,1.288-1.801,0.725-2.764
		c-0.562-0.963-1.8-1.289-2.763-0.725l-4.42,2.584l0.001-5.121C34.021,40.971,33.117,40.066,32.001,40.066z"/>
	<path fill="#555655" d="M56.679,12.178c-2.911-1.684-6.503-2.024-9.655-0.941C43.16,5.876,36.883,2.61,30.242,2.61
		c-3.62,0-7.197,0.964-10.347,2.79c-2.143,1.243-4.023,2.838-5.599,4.75c-2.365,0.126-4.686,0.816-6.754,2.015
		C2.89,14.861,0,19.864,0,25.221c0,5.358,2.89,10.357,7.543,13.053c0.92,0.531,1.917,0.967,2.973,1.299
		c1.028,3.283,2.878,6.271,5.394,8.699c0.803,0.775,2.081,0.752,2.856-0.051c0.774-0.803,0.752-2.082-0.051-2.855
		c-2.263-2.184-3.855-4.926-4.605-7.926c-0.183-0.736-0.763-1.307-1.5-1.479c-1.11-0.26-2.134-0.66-3.043-1.186
		c-3.409-1.973-5.527-5.634-5.527-9.555s2.118-7.583,5.528-9.56c1.668-0.966,3.56-1.482,5.469-1.491
		c0.059,0.005,0.118,0.009,0.179,0.012c0.658,0.037,1.292-0.28,1.687-0.81c1.368-1.832,3.057-3.338,5.019-4.476
		c2.534-1.469,5.411-2.245,8.32-2.245c5.908,0,11.25,3.045,14.29,8.145c0.552,0.927,1.735,1.255,2.688,0.749
		c1.121-0.599,2.334-0.902,3.604-0.902c1.338,0,2.664,0.358,3.831,1.032c2.368,1.375,3.84,3.918,3.84,6.638
		c0,1.382-0.376,2.741-1.085,3.929c-0.432,0.722-0.371,1.636,0.152,2.295c1.57,1.973,2.399,4.34,2.399,6.846
		c0,3.922-2.117,7.586-5.527,9.559c-1.685,0.977-3.594,1.494-5.521,1.494c-0.462,0-0.936-0.035-1.45-0.107
		c-1.109-0.158-2.125,0.619-2.278,1.725s0.619,2.125,1.725,2.277c0.7,0.098,1.355,0.145,2.004,0.145
		c2.637,0,5.246-0.705,7.545-2.035C61.11,45.742,64,40.74,64,35.381c0-2.983-0.858-5.82-2.491-8.282
		c0.673-1.501,1.024-3.132,1.024-4.787C62.533,18.156,60.291,14.273,56.679,12.178z"/>
</g>
</svg>
