<?xml version="1.0" encoding="utf-8"?>
<!-- Generator: Adobe Illustrator 16.0.0, SVG Export Plug-In . SVG Version: 6.00 Build 0)  -->
<!DOCTYPE svg PUBLIC "-//W3C//DTD SVG 1.1//EN" "http://www.w3.org/Graphics/SVG/1.1/DTD/svg11.dtd">
<svg version="1.1" id="Layer_2" xmlns="http://www.w3.org/2000/svg" xmlns:xlink="http://www.w3.org/1999/xlink" x="0px" y="0px"
	 width="64px" height="64px" viewBox="0 0 64 64" enable-background="new 0 0 64 64" xml:space="preserve">
<g>
	<path fill="#555655" d="M23.164,32.249c0,4.746,3.861,8.607,8.608,8.607c4.748,0,8.609-3.861,8.609-8.607
		c0-4.746-3.861-8.609-8.609-8.609C27.025,23.639,23.164,27.502,23.164,32.249z M38.381,32.249c0,3.644-2.965,6.607-6.609,6.607
		c-3.644,0-6.608-2.963-6.608-6.607c0-3.645,2.965-6.609,6.608-6.609C35.416,25.639,38.381,28.604,38.381,32.249z"/>
	<path fill="#555655" d="M20.52,32.247c0-0.553-0.447-1-1-1h-3.399c-0.553,0-1,0.447-1,1s0.447,1,1,1h3.399
		C20.073,33.246,20.52,32.799,20.52,32.247z"/>
	<path fill="#555655" d="M47.426,31.247h-3.402c-0.553,0-1,0.447-1,1s0.447,1,1,1h3.402c0.553,0,1-0.447,1-1
		S47.979,31.247,47.426,31.247z"/>
	<path fill="#555655" d="M20.662,37.508l-2.945,1.701c-0.479,0.275-0.643,0.887-0.366,1.365c0.186,0.322,0.521,0.5,0.867,0.5
		c0.17,0,0.342-0.043,0.499-0.133l2.945-1.701c0.479-0.277,0.643-0.889,0.366-1.367C21.75,37.395,21.138,37.23,20.662,37.508z"/>
	<path fill="#555655" d="M42.383,27.122c0.17,0,0.342-0.043,0.5-0.133l2.945-1.701c0.479-0.277,0.643-0.889,0.367-1.367
		c-0.277-0.479-0.891-0.643-1.367-0.365l-2.945,1.701c-0.479,0.275-0.643,0.887-0.367,1.365
		C41.701,26.944,42.037,27.122,42.383,27.122z"/>
	<path fill="#555655" d="M26.147,41.992c-0.478-0.275-1.09-0.115-1.366,0.365l-1.701,2.945c-0.276,0.479-0.112,1.09,0.366,1.367
		c0.157,0.09,0.329,0.133,0.499,0.133c0.346,0,0.682-0.178,0.867-0.5l1.701-2.945C26.79,42.879,26.625,42.268,26.147,41.992z"/>
	<path fill="#555655" d="M40.1,17.827c-0.479-0.277-1.09-0.115-1.367,0.365l-1.699,2.943c-0.277,0.479-0.113,1.09,0.365,1.367
		c0.158,0.09,0.33,0.133,0.5,0.133c0.346,0,0.682-0.178,0.867-0.5l1.699-2.943C40.742,18.713,40.578,18.102,40.1,17.827z"/>
	<path fill="#555655" d="M31.775,43.498L31.775,43.498c-0.553,0-1.001,0.447-1.001,1l-0.002,3.4c0,0.553,0.447,1,0.999,1h0.001
		c0.552,0,1-0.447,1-0.998l0.002-3.4C32.774,43.947,32.327,43.498,31.775,43.498z"/>
	<path fill="#555655" d="M31.772,20.995c0.553,0,1-0.447,1-1v-3.402c0-0.553-0.447-1-1-1s-1,0.447-1,1v3.402
		C30.772,20.547,31.219,20.995,31.772,20.995z"/>
	<path fill="#555655" d="M38.766,42.355c-0.277-0.479-0.891-0.643-1.367-0.365c-0.479,0.275-0.643,0.887-0.365,1.365l1.699,2.947
		c0.186,0.32,0.521,0.5,0.867,0.5c0.17,0,0.342-0.043,0.5-0.133c0.479-0.277,0.643-0.889,0.365-1.367L38.766,42.355z"/>
	<path fill="#555655" d="M24.781,22.135c0.186,0.322,0.521,0.5,0.867,0.5c0.17,0,0.342-0.043,0.499-0.133
		c0.479-0.277,0.643-0.889,0.366-1.367l-1.701-2.945c-0.277-0.479-0.89-0.643-1.366-0.365c-0.479,0.275-0.643,0.887-0.366,1.365
		L24.781,22.135z"/>
	<path fill="#555655" d="M45.828,39.209l-2.945-1.703c-0.479-0.277-1.09-0.115-1.367,0.365c-0.275,0.479-0.111,1.09,0.367,1.367
		l2.945,1.703c0.158,0.09,0.33,0.133,0.5,0.133c0.346,0,0.682-0.178,0.867-0.5C46.471,40.098,46.307,39.484,45.828,39.209z"/>
	<path fill="#555655" d="M21.662,25.254l-2.945-1.699c-0.478-0.277-1.09-0.113-1.366,0.365s-0.112,1.09,0.366,1.367l2.945,1.699
		c0.157,0.09,0.329,0.133,0.499,0.133c0.346,0,0.682-0.18,0.867-0.5C22.304,26.141,22.14,25.53,21.662,25.254z"/>
</g>
</svg>
