<?xml version="1.0" encoding="utf-8"?>
<!-- Generator: Adobe Illustrator 16.0.0, SVG Export Plug-In . SVG Version: 6.00 Build 0)  -->
<!DOCTYPE svg PUBLIC "-//W3C//DTD SVG 1.1//EN" "http://www.w3.org/Graphics/SVG/1.1/DTD/svg11.dtd">
<svg version="1.1" id="Layer_1" xmlns="http://www.w3.org/2000/svg" xmlns:xlink="http://www.w3.org/1999/xlink" x="0px" y="0px"
	 width="64px" height="64px" viewBox="0 0 64 64" enable-background="new 0 0 64 64" xml:space="preserve">
<g>
	<path fill="#555655" d="M30.496,13.886v6.661c0,0.831,0.672,1.504,1.504,1.504c0.83,0,1.504-0.674,1.504-1.504v-6.661
		c0-0.83-0.674-1.504-1.504-1.504C31.168,12.382,30.496,13.056,30.496,13.886z"/>
	<path fill="#555655" d="M9.374,21.757c-0.587,0.587-0.587,1.541,0,2.127l4.707,4.707c0.294,0.293,0.679,0.439,1.063,0.439
		s0.771-0.146,1.063-0.44c0.587-0.586,0.587-1.54,0-2.127l-4.707-4.706C10.914,21.169,9.96,21.169,9.374,21.757z"/>
	<path fill="#555655" d="M1.504,40.658h6.658c0.832,0,1.504-0.674,1.504-1.504S8.993,37.65,8.162,37.65H1.504
		C0.674,37.65,0,38.324,0,39.154S0.674,40.658,1.504,40.658z"/>
	<path fill="#555655" d="M54.334,39.154c0,0.83,0.673,1.504,1.504,1.504h6.658c0.83,0,1.504-0.674,1.504-1.504
		s-0.674-1.504-1.504-1.504h-6.658C55.007,37.65,54.334,38.324,54.334,39.154z"/>
	<path fill="#555655" d="M54.628,21.757c-0.588-0.587-1.54-0.587-2.128,0l-4.708,4.706c-0.588,0.587-0.588,1.54-0.001,2.127
		c0.294,0.294,0.68,0.44,1.064,0.44s0.77-0.146,1.063-0.439l4.708-4.707C55.215,23.297,55.215,22.344,54.628,21.757z"/>
	<path fill="#555655" d="M1.504,51.617h14.2h32.593h14.199c0.83,0,1.504-0.674,1.504-1.504s-0.674-1.504-1.504-1.504H50.299
		c0.327-1.396,0.496-2.811,0.496-4.227c0-10.361-8.431-18.79-18.793-18.79c-10.363,0-18.794,8.428-18.794,18.79
		c0,1.416,0.169,2.83,0.497,4.227h-12.2C0.674,48.609,0,49.283,0,50.113S0.674,51.617,1.504,51.617z M16.216,44.383
		c0-8.703,7.082-15.781,15.786-15.781c8.703,0,15.785,7.078,15.785,15.781c0,1.416-0.199,2.834-0.591,4.227H16.805
		C16.414,47.217,16.216,45.799,16.216,44.383z"/>
</g>
</svg>
