<?xml version="1.0" encoding="utf-8"?>
<!-- Generator: Adobe Illustrator 16.0.0, SVG Export Plug-In . SVG Version: 6.00 Build 0)  -->
<!DOCTYPE svg PUBLIC "-//W3C//DTD SVG 1.1//EN" "http://www.w3.org/Graphics/SVG/1.1/DTD/svg11.dtd">
<svg version="1.1" id="Layer_1" xmlns="http://www.w3.org/2000/svg" xmlns:xlink="http://www.w3.org/1999/xlink" x="0px" y="0px"
	 width="64px" height="64px" viewBox="0 0 64 64" enable-background="new 0 0 64 64" xml:space="preserve">
<g>
	<path fill="#555655" d="M33.503,50.113v-6.656c0-0.831-0.674-1.505-1.504-1.505c-0.832,0-1.504,0.674-1.504,1.505v6.656
		c0,0.831,0.672,1.504,1.504,1.504C32.829,51.617,33.503,50.944,33.503,50.113z"/>
	<path fill="#555655" d="M47.79,35.41c-0.588,0.588-0.588,1.539,0,2.127l4.709,4.71c0.293,0.294,0.679,0.44,1.063,0.44
		s0.77-0.146,1.063-0.44c0.587-0.587,0.587-1.539,0-2.127l-4.709-4.71C49.33,34.822,48.377,34.823,47.79,35.41z"/>
	<path fill="#555655" d="M1.504,26.348h6.657c0.83,0,1.504-0.673,1.504-1.504S8.991,23.34,8.161,23.34H1.504
		C0.673,23.34,0,24.014,0,24.844S0.673,26.348,1.504,26.348z"/>
	<path fill="#555655" d="M55.838,26.348h6.658c0.83,0,1.504-0.673,1.504-1.504s-0.674-1.504-1.504-1.504h-6.658
		c-0.831,0-1.504,0.673-1.504,1.504S55.007,26.348,55.838,26.348z"/>
	<path fill="#555655" d="M14.08,35.41L9.37,40.12c-0.587,0.588-0.587,1.54,0,2.127c0.294,0.294,0.679,0.44,1.063,0.44
		c0.385,0,0.771-0.146,1.063-0.44l4.709-4.71c0.587-0.588,0.587-1.539,0-2.127C15.619,34.823,14.666,34.822,14.08,35.41z"/>
	<path fill="#555655" d="M1.504,15.391h12.199c-0.327,1.396-0.497,2.811-0.497,4.228c0,10.363,8.43,18.793,18.793,18.793
		c10.362,0,18.793-8.43,18.793-18.793c0-1.418-0.169-2.833-0.497-4.228h12.2c0.83,0,1.504-0.674,1.504-1.504
		c0-0.831-0.674-1.504-1.504-1.504H48.294h-32.59h-14.2C0.673,12.382,0,13.056,0,13.887C0,14.717,0.673,15.391,1.504,15.391z
		 M47.194,15.391c0.392,1.392,0.591,2.81,0.591,4.228c0,8.704-7.081,15.785-15.786,15.785s-15.785-7.081-15.785-15.785
		c0-1.417,0.198-2.835,0.59-4.228H47.194z"/>
</g>
</svg>
