<?xml version="1.0" encoding="utf-8"?>
<!-- Generator: Adobe Illustrator 16.0.0, SVG Export Plug-In . SVG Version: 6.00 Build 0)  -->
<!DOCTYPE svg PUBLIC "-//W3C//DTD SVG 1.1//EN" "http://www.w3.org/Graphics/SVG/1.1/DTD/svg11.dtd">
<svg version="1.1" id="Layer_1" xmlns="http://www.w3.org/2000/svg" xmlns:xlink="http://www.w3.org/1999/xlink" x="0px" y="0px"
	 width="64px" height="64px" viewBox="0 0 64 64" enable-background="new 0 0 64 64" xml:space="preserve">
<g>
	<path fill="#555655" d="M54.432,43.24c-1.685,0.977-3.593,1.492-5.521,1.492c-0.464,0-0.938-0.035-1.448-0.105
		c-1.1-0.154-2.125,0.617-2.277,1.723c-0.153,1.104,0.617,2.125,1.724,2.279c0.694,0.096,1.353,0.143,2.003,0.143
		c2.638,0,5.247-0.705,7.544-2.035C61.107,44.043,64,39.041,64,33.682c0-2.982-0.857-5.821-2.491-8.283
		c0.675-1.502,1.025-3.134,1.025-4.789c0-4.153-2.242-8.036-5.854-10.132c-2.914-1.682-6.5-2.02-9.652-0.943
		c-3.887-5.433-10.039-8.626-16.786-8.626c-3.618,0-7.194,0.965-10.344,2.792c-2.144,1.24-4.024,2.835-5.601,4.75
		C11.93,8.578,9.61,9.268,7.542,10.466C2.89,13.161,0,18.164,0,23.522c0,5.356,2.891,10.357,7.541,13.048
		c0.917,0.531,1.914,0.969,2.975,1.301c1.028,3.283,2.877,6.271,5.393,8.699c0.802,0.775,2.082,0.752,2.856-0.051
		c0.775-0.804,0.752-2.082-0.05-2.855c-2.263-2.186-3.855-4.926-4.604-7.928c-0.184-0.734-0.763-1.305-1.5-1.478
		c-1.114-0.262-2.138-0.659-3.043-1.186c-3.41-1.973-5.527-5.633-5.527-9.552c0-3.922,2.118-7.584,5.528-9.56
		c1.685-0.976,3.593-1.491,5.473-1.493c0.057,0.005,0.116,0.009,0.176,0.011c0.651,0.013,1.292-0.28,1.687-0.811
		c1.369-1.833,3.057-3.338,5.018-4.473c2.536-1.47,5.412-2.248,8.319-2.248c5.906,0,11.249,3.046,14.292,8.146
		c0.554,0.926,1.735,1.255,2.687,0.747c1.119-0.597,2.332-0.899,3.604-0.899c1.336,0,2.662,0.357,3.83,1.032
		c2.369,1.375,3.841,3.917,3.841,6.635c0,1.382-0.376,2.741-1.086,3.928c-0.433,0.722-0.371,1.636,0.151,2.293
		c1.569,1.976,2.399,4.344,2.399,6.851C59.96,37.604,57.842,41.266,54.432,43.24z"/>
	<path fill="#F0CE59" d="M38.82,44.709c-0.579-0.58-1.45-0.752-2.207-0.436l-6.485,2.703l3.888-10.427
		c0.391-1.045-0.142-2.209-1.188-2.598c-1.041-0.392-2.208,0.141-2.598,1.187l-5.514,14.786c-0.282,0.755-0.088,1.604,0.492,2.162
		c0.579,0.56,1.434,0.722,2.178,0.408l6.243-2.603L29.28,60.291c-0.431,1.027,0.054,2.211,1.083,2.643
		c0.255,0.107,0.519,0.156,0.779,0.156c0.79,0,1.54-0.467,1.865-1.24l6.247-14.932C39.57,46.162,39.398,45.289,38.82,44.709z"/>
</g>
</svg>
