<?xml version="1.0" encoding="utf-8"?>
<!-- Generator: Adobe Illustrator 16.0.0, SVG Export Plug-In . SVG Version: 6.00 Build 0)  -->
<!DOCTYPE svg PUBLIC "-//W3C//DTD SVG 1.1//EN" "http://www.w3.org/Graphics/SVG/1.1/DTD/svg11.dtd">
<svg version="1.1" id="Layer_1" xmlns="http://www.w3.org/2000/svg" xmlns:xlink="http://www.w3.org/1999/xlink" x="0px" y="0px"
	 width="64px" height="64px" viewBox="0 0 64 64" enable-background="new 0 0 64 64" xml:space="preserve">
<g>
	<path fill="#555655" d="M7.769,42.611c0.76,2.428,2.127,4.635,3.985,6.426c0.593,0.572,1.538,0.555,2.11-0.039
		c0.572-0.592,0.555-1.537-0.039-2.109c-1.67-1.611-2.846-3.635-3.402-5.854c-0.135-0.541-0.563-0.964-1.107-1.093
		c-0.821-0.19-1.578-0.485-2.248-0.873c-2.518-1.459-4.083-4.164-4.083-7.058c0-2.896,1.565-5.603,4.083-7.062
		c1.234-0.715,2.631-1.096,4.042-1.103c0.059,0.005,0.123,0.01,0.181,0.009c0.471,0,0.914-0.223,1.196-0.6
		c1.01-1.354,2.258-2.465,3.706-3.304c1.874-1.086,4-1.66,6.147-1.66c2.076,0,4.055,0.515,5.804,1.454
		c0.202,0.109,0.4,0.223,0.594,0.342c0.034,0.02,0.067,0.041,0.101,0.061c0.196,0.124,0.389,0.252,0.577,0.387
		c0.046,0.033,0.094,0.064,0.14,0.098c0.148,0.108,0.292,0.22,0.434,0.334c0.093,0.074,0.187,0.147,0.278,0.224
		c0.066,0.056,0.129,0.115,0.194,0.172c0.939,0.834,1.765,1.821,2.435,2.946c0.408,0.684,1.283,0.928,1.984,0.552
		c0.827-0.441,1.725-0.665,2.663-0.665c0.988,0,1.968,0.264,2.83,0.763c1.746,1.013,2.832,2.887,2.835,4.892
		c-0.004,1.01-0.279,2.003-0.802,2.875c-0.161,0.27-0.229,0.575-0.208,0.873c0.015,0.307,0.121,0.606,0.32,0.858
		c0.401,0.506,0.733,1.047,1.002,1.615c0.338,0.745,0.571,1.551,0.679,2.389c0.008,0.063,0.024,0.125,0.041,0.187
		c0.03,0.287,0.052,0.576,0.052,0.869c0,2.896-1.564,5.602-4.084,7.061c-1.244,0.721-2.654,1.102-4.078,1.102
		c-0.345,0-0.693-0.022-1.068-0.076c-0.816-0.114-1.57,0.455-1.685,1.273c-0.112,0.816,0.457,1.57,1.272,1.682
		c0.513,0.072,0.996,0.107,1.479,0.107c1.948,0,3.876-0.521,5.574-1.504c3.385-1.961,5.502-5.574,5.565-9.463
		c8.213-0.707,15.104-6.797,16.701-14.999c0.094-0.484-0.057-0.982-0.402-1.333c-0.344-0.351-0.842-0.508-1.325-0.422
		c-0.972,0.175-1.877,0.259-2.771,0.259c-8.636,0-15.66-7.024-15.66-15.657c0-0.988,0.101-2,0.295-3.008
		c0.096-0.483-0.056-0.982-0.4-1.333c-0.346-0.351-0.842-0.508-1.326-0.422c-7.146,1.278-12.839,6.6-14.691,13.505
		c-1.691-0.638-3.501-0.982-5.35-0.982c-2.673,0-5.316,0.713-7.643,2.062c-1.583,0.917-2.972,2.096-4.137,3.508
		c-1.747,0.094-3.459,0.604-4.989,1.489C2.135,24.358,0,28.054,0,32.011c0,3.956,2.135,7.649,5.571,9.64
		C6.251,42.043,6.987,42.365,7.769,42.611z M40.879,6.227c-0.031,0.442-0.049,0.882-0.049,1.319
		c0,10.279,8.365,18.642,18.646,18.642c0.342,0,0.684-0.011,1.028-0.031c-1.991,5.877-7.342,10.077-13.585,10.573
		c-0.15-0.584-0.35-1.155-0.596-1.711c-0.01-0.021-0.02-0.043-0.028-0.063c-0.067-0.149-0.144-0.299-0.217-0.447
		c-0.192-0.389-0.397-0.768-0.636-1.129c0.492-1.104,0.752-2.304,0.752-3.519c0-0.003,0-0.007,0-0.01c0-0.008,0-0.016,0-0.024
		c0-3.07-1.655-5.939-4.326-7.488c-2.151-1.242-4.803-1.493-7.131-0.694c-1.155-1.598-2.621-2.966-4.315-4.026
		C31.655,12.229,35.66,7.903,40.879,6.227z"/>
	<path fill="#F0CE59" d="M24.253,39.717c-0.771-0.289-1.631,0.104-1.92,0.875l-4.075,10.924c-0.208,0.56-0.065,1.187,0.363,1.599
		c0.428,0.411,1.06,0.53,1.609,0.303l4.612-1.924l-3.212,7.68c-0.318,0.763,0.041,1.636,0.801,1.953
		c0.188,0.08,0.383,0.115,0.575,0.115c0.583,0,1.138-0.345,1.376-0.916l4.615-11.031c0.234-0.56,0.107-1.203-0.321-1.631
		c-0.428-0.429-1.072-0.558-1.63-0.322l-4.79,1.998l2.872-7.703C25.417,40.863,25.025,40.004,24.253,39.717z"/>
</g>
</svg>
