<?xml version="1.0" encoding="utf-8"?>
<!-- Generator: Adobe Illustrator 16.0.0, SVG Export Plug-In . SVG Version: 6.00 Build 0)  -->
<!DOCTYPE svg PUBLIC "-//W3C//DTD SVG 1.1//EN" "http://www.w3.org/Graphics/SVG/1.1/DTD/svg11.dtd">
<svg version="1.1" id="Layer_1" xmlns="http://www.w3.org/2000/svg" xmlns:xlink="http://www.w3.org/1999/xlink" x="0px" y="0px"
	 width="64px" height="64px" viewBox="0 0 64 64" enable-background="new 0 0 64 64" xml:space="preserve">
<g>
	<path fill="#555655" d="M37.337,61.793c5.337,0,9.68-4.343,9.68-9.68c0-5.338-4.343-9.681-9.68-9.681H2.165
		c-1.196,0-2.163,0.969-2.163,2.163s0.967,2.163,2.163,2.163h27.112c-1.022,1.535-1.622,3.375-1.622,5.354
		C27.654,57.45,31.997,61.793,37.337,61.793z M42.691,52.113c0,2.952-2.402,5.354-5.354,5.354c-2.954,0-5.356-2.401-5.356-5.354
		s2.402-5.354,5.356-5.354C40.289,46.759,42.691,49.161,42.691,52.113z"/>
	<path fill="#555655" d="M2.163,34.228H54.32c0.298,0,0.583-0.061,0.842-0.171C60.106,33.629,64,29.473,64,24.42
		c0-5.338-4.343-9.683-9.68-9.683c-5.339,0-9.681,4.345-9.681,9.683c0,2.034,0.634,3.921,1.71,5.48H2.163
		C0.967,29.901,0,30.87,0,32.064S0.967,34.228,2.163,34.228z M54.32,19.063c2.951,0,5.354,2.403,5.354,5.357
		c0,2.952-2.402,5.353-5.354,5.353c-2.953,0-5.354-2.401-5.354-5.353C48.966,21.467,51.367,19.063,54.32,19.063z"/>
	<path fill="#555655" d="M2.165,21.696H24.25c0.297,0,0.581-0.06,0.838-0.169c4.946-0.428,8.841-4.582,8.841-9.636
		c0-5.34-4.342-9.684-9.679-9.684c-5.338,0-9.681,4.344-9.681,9.684c0,2.033,0.634,3.919,1.708,5.479H2.165
		c-1.196,0-2.163,0.968-2.163,2.163S0.969,21.696,2.165,21.696z M24.25,6.533c2.952,0,5.353,2.404,5.353,5.358
		c0,2.952-2.401,5.353-5.353,5.353c-2.953,0-5.355-2.401-5.355-5.353C18.896,8.937,21.298,6.533,24.25,6.533z"/>
</g>
</svg>
