<?xml version="1.0" encoding="utf-8"?>
<!-- Generator: Adobe Illustrator 16.0.0, SVG Export Plug-In . SVG Version: 6.00 Build 0)  -->
<!DOCTYPE svg PUBLIC "-//W3C//DTD SVG 1.1//EN" "http://www.w3.org/Graphics/SVG/1.1/DTD/svg11.dtd">
<svg version="1.1" id="Layer_1" xmlns="http://www.w3.org/2000/svg" xmlns:xlink="http://www.w3.org/1999/xlink" x="0px" y="0px"
	 width="64px" height="64px" viewBox="0 0 64 64" enable-background="new 0 0 64 64" xml:space="preserve">
<g>
	<path fill="#555655" d="M29.997,55.393c0.746,0.434,1.593,0.664,2.452,0.664c2.698,0,4.892-2.195,4.892-4.893
		c0-0.674-0.138-1.332-0.409-1.951c-0.777-1.787-2.537-2.941-4.483-2.941c-0.861,0-1.708,0.229-2.453,0.662
		c-0.05,0.029-0.097,0.061-0.144,0.098c-1.438,0.904-2.295,2.443-2.295,4.133C27.557,52.898,28.493,54.518,29.997,55.393z
		 M31.151,49.061c0.042-0.025,0.083-0.053,0.122-0.082c0.363-0.197,0.757-0.297,1.175-0.297c0.986,0,1.878,0.586,2.274,1.494
		c0.139,0.316,0.208,0.648,0.208,0.988c0,1.369-1.113,2.482-2.482,2.482c-0.438,0-0.854-0.113-1.239-0.338
		c-0.767-0.445-1.243-1.268-1.243-2.145C29.967,50.299,30.416,49.508,31.151,49.061z"/>
	<path fill="#555655" d="M20.8,51.221c2.973,0,5.393-2.42,5.393-5.393c0-2.975-2.419-5.393-5.393-5.393H1.206
		c-0.666,0-1.205,0.539-1.205,1.205s0.539,1.203,1.205,1.203h15.104c-0.57,0.855-0.904,1.881-0.904,2.984
		C15.407,48.801,17.826,51.221,20.8,51.221z M23.783,45.828c0,1.645-1.338,2.982-2.983,2.982c-1.645,0-2.983-1.338-2.983-2.982
		s1.338-2.984,2.983-2.984C22.444,42.844,23.783,44.184,23.783,45.828z"/>
	<path fill="#555655" d="M30.73,35.77c2.754-0.24,4.924-2.555,4.924-5.369c0-2.974-2.42-5.394-5.394-5.394s-5.393,2.42-5.393,5.394
		c0,1.133,0.353,2.184,0.952,3.053H1.205C0.539,33.453,0,33.992,0,34.658s0.54,1.205,1.205,1.205h29.056
		C30.427,35.863,30.585,35.83,30.73,35.77z M30.261,27.417c1.645,0,2.983,1.338,2.983,2.984c0,1.645-1.338,2.982-2.983,2.982
		s-2.983-1.338-2.983-2.982C27.277,28.754,28.616,27.417,30.261,27.417z"/>
	<path fill="#555655" d="M0.001,27.678c0,0.666,0.539,1.205,1.205,1.205h12.303c0.166,0,0.324-0.034,0.468-0.094
		c2.756-0.238,4.926-2.552,4.926-5.367c0-2.975-2.419-5.395-5.394-5.395c-2.974,0-5.393,2.42-5.393,5.395
		c0,1.133,0.353,2.183,0.952,3.052H1.206C0.54,26.473,0.001,27.012,0.001,27.678z M13.509,20.436c1.646,0,2.983,1.339,2.983,2.985
		c0,1.644-1.338,2.981-2.983,2.981c-1.645,0-2.983-1.337-2.983-2.981C10.525,21.775,11.864,20.436,13.509,20.436z"/>
	<path fill="#555655" d="M45.022,43.428c-1.005,0.582-2.144,0.891-3.292,0.891c-0.279,0-0.562-0.021-0.863-0.062
		c-0.663-0.09-1.268,0.367-1.359,1.027s0.368,1.268,1.027,1.359c0.413,0.059,0.804,0.086,1.195,0.086c1.572,0,3.129-0.42,4.5-1.215
		c2.771-1.604,4.493-4.58,4.499-7.77c6.527-0.666,11.976-5.543,13.248-12.088c0.076-0.39-0.046-0.792-0.324-1.075
		c-0.279-0.283-0.681-0.41-1.071-0.341c-0.782,0.142-1.514,0.209-2.234,0.209c-6.974,0-12.646-5.672-12.646-12.644
		c0-0.792,0.079-1.609,0.239-2.429c0.075-0.39-0.047-0.792-0.325-1.075c-0.279-0.283-0.681-0.411-1.07-0.341
		c-5.779,1.033-10.382,5.341-11.87,10.927c-1.297-0.46-2.674-0.71-4.081-0.71c-2.159,0-4.293,0.576-6.172,1.666
		c-0.576,0.333-0.772,1.071-0.438,1.647c0.333,0.576,1.071,0.772,1.646,0.438c1.513-0.877,3.229-1.341,4.963-1.341
		c1.521,0,2.979,0.341,4.292,0.971c0.029,0.02,0.059,0.041,0.091,0.058c1.632,0.867,2.984,2.145,3.91,3.696
		c0.13,0.219,0.321,0.379,0.538,0.478c0.364,0.276,0.869,0.33,1.296,0.104c0.668-0.357,1.392-0.537,2.15-0.537
		c0.755,0,1.502,0.197,2.171,0.559c1.34,0.835,2.172,2.306,2.172,3.882c0,0.823-0.225,1.632-0.649,2.34
		c-0.258,0.431-0.222,0.976,0.091,1.371c0.734,0.922,1.203,2.051,1.356,3.262c0.032,0.248,0.14,0.467,0.295,0.643
		c0.005,0.105,0.014,0.209,0.014,0.314C48.32,40.066,47.057,42.25,45.022,43.428z M45.33,10.741
		c-0.026,0.358-0.039,0.713-0.039,1.064c0,8.301,6.754,15.054,15.057,15.054c0.275,0,0.551-0.009,0.83-0.025
		c-1.587,4.683-5.815,8.041-10.771,8.516c-0.248-0.904-0.636-1.768-1.163-2.563c0.402-0.895,0.611-1.869,0.611-2.856
		c0-2.478-1.337-4.792-3.492-6.043c-0.025-0.014-0.053-0.025-0.078-0.04c-0.052-0.032-0.102-0.066-0.155-0.097
		c-1.704-0.983-3.797-1.191-5.652-0.589c-0.979-1.313-2.203-2.409-3.586-3.234C37.89,15.581,41.12,12.094,45.33,10.741z"/>
</g>
</svg>
